<?xml version="1.0" encoding="UTF-8"?>
<svg xmlns="http://www.w3.org/2000/svg" xmlns:xlink="http://www.w3.org/1999/xlink" viewBox="0 0 430 932.21">
  <defs>
    <style>
      .cls-1 {
        fill: #6cce6a;
      }

      .cls-2 {
        fill: #8fd9ef;
      }

      .cls-3 {
        fill: #c3c7f6;
      }

      .cls-4 {
        fill: #008ea7;
        opacity: .3;
      }

      .cls-5 {
        fill: #00dc40;
      }

      .cls-6, .cls-7 {
        fill: #fff;
      }

      .cls-8 {
        fill: #98e3f4;
      }

      .cls-7 {
        mix-blend-mode: lighten;
      }

      .cls-7, .cls-9 {
        opacity: .8;
      }

      .cls-10 {
        fill: #f3eac7;
      }

      .cls-11 {
        fill: none;
      }

      .cls-12 {
        clip-path: url(#clippath-1);
      }

      .cls-13 {
        fill: #98d5cc;
      }

      .cls-14 {
        fill: #aae6ff;
      }

      .cls-15 {
        isolation: isolate;
      }

      .cls-16 {
        fill: #0fb546;
      }

      .cls-17 {
        fill: #f58a28;
      }

      .cls-18 {
        opacity: .1;
      }

      .cls-18, .cls-19 {
        fill: #f5fbff;
      }

      .cls-20 {
        fill: #00e2ff;
      }

      .cls-21 {
        fill: #fcb82e;
      }

      .cls-22 {
        fill: #0cc43c;
      }

      .cls-23 {
        fill: #dff2fd;
      }

      .cls-24 {
        fill: #eceef0;
      }

      .cls-25 {
        fill: #c2c3ca;
        mix-blend-mode: multiply;
        opacity: .6;
      }

      .cls-26 {
        fill: #acdbcf;
      }

      .cls-27 {
        fill: #88d3e5;
      }

      .cls-28 {
        fill: #ff5eb2;
      }

      .cls-29 {
        clip-path: url(#clippath-2);
      }

      .cls-30 {
        fill: #86e885;
      }

      .cls-31 {
        fill: #70cacd;
      }

      .cls-32 {
        fill: #3bc0cb;
      }

      .cls-33 {
        fill: #fdec41;
      }

      .cls-34 {
        fill: #f6ca10;
      }

      .cls-35 {
        clip-path: url(#clippath);
      }

      .cls-36 {
        opacity: .5;
      }

      .cls-37 {
        fill: #76dd73;
      }
    </style>
    <clipPath id="clippath">
      <rect class="cls-11" x="1.13" y="577.97" width="428.87" height="354.24"/>
    </clipPath>
    <clipPath id="clippath-1">
      <rect class="cls-11" x="221.87" width="208.13" height="139.83"/>
    </clipPath>
    <clipPath id="clippath-2">
      <rect class="cls-11" y="680.94" width="428.83" height="251.27"/>
    </clipPath>
  </defs>
  <g class="cls-15">
    <g id="Layer_2" data-name="Layer 2">
      <g id="Layer_1-2" data-name="Layer 1">
        <g>
          <rect class="cls-14" width="430" height="932.21"/>
          <g class="cls-36">
            <path class="cls-6" d="M96.98,212.19c-15.37-8.48-16.73-32.93-.55-41.14,1.99-1.01,4.95-2.57,7.16-2.89,1.12-.16,8.46.78,8.38,2.43.27-5.61,4.43-10.38,9.27-13.23,12.15-7.15,29.51-3.39,37.62,8.15,8.11,11.54,5.77,29.14-5.07,38.16,4.31-1.93,9.83-.65,12.86,2.97,3.03,3.63,3.3,9.29.63,13.18,5.7-3.29,13.84-1.28,17.35,4.3,8.64-1.87,17.84-1.1,26.05,2.16,1.83.73,3.69,1.64,4.88,3.22,1.18,1.58,1.45,4,.11,5.45-.86.93-2.16,1.28-3.4,1.53-4.74.94-9.62.97-14.45.99-22.61.11-45.21.22-67.82.32-2.28.01-4.63,0-6.71-.93-2.08-.94-3.79-3.08-3.48-5.33-3.31,2.62-7.2,4.64-11.39,5.1-4.19.46-8.69-.83-11.54-3.94-13.18,3.57-27.09,4.4-40.6,2.41-2.22-.33-4.51-.76-6.38-1.99-1.88-1.24-3.26-3.48-2.85-5.69.42-2.22,2.53-3.8,4.73-4.28,2.2-.48,4.49-.07,6.7.37-.87-4.3,1.73-8.76,5.41-11.16,3.67-2.4,8.2-3.1,12.59-3.23,6.95-.22,13.93.83,20.51,3.06Z"/>
            <g>
              <path class="cls-19" d="M51.77,223.15c-2.2.48-4.32,2.07-4.73,4.28-.42,2.21.97,4.45,2.85,5.69,1.88,1.24,4.16,1.67,6.38,1.99,13.51,1.99,27.42,1.16,40.6-2.41,2.85,3.11,7.35,4.39,11.54,3.94,4.19-.46,8.09-2.48,11.39-5.1-.32,2.25,1.4,4.4,3.48,5.33,2.08.94,4.43.94,6.71.93,22.61-.11,45.21-.22,67.82-.32,4.84-.02,9.71-.05,14.45-.99,1.24-.25,2.54-.6,3.4-1.53,1.34-1.45,1.07-3.87-.11-5.45-.44-.59-.97-1.08-1.56-1.5-6.88,2-14.46,1.28-21.61,0-2.44-.44-5.05-1.02-6.73-2.85-.29-.32-.53-.69-.72-1.09-.11.02-.21.04-.32.06-3.5-5.58-11.65-7.59-17.35-4.3,2.67-3.9,2.4-9.56-.63-13.18-3.03-3.63-8.55-4.9-12.86-2.97,8.1-6.74,11.45-18.27,9.25-28.49-1.04,7.03-3.49,13.89-7.85,19.46-5.16,6.58-13.22,11.15-21.58,10.92-1.13-8.6-6.7-16.5-14.42-20.45,4.19,3.2,4.3,10.16.71,14.02-3.59,3.86-9.85,4.53-14.59,2.23-4.74-2.3-7.96-7.1-9.21-12.22-1.85-7.61.76-14.02,4.73-20.16-1.57.62-3.17,1.46-4.39,2.08-16.18,8.21-14.82,32.66.55,41.14-1.65-.56-3.32-1.05-5.01-1.45-5.57,1.47-11.74,2.39-17.24,3.89-5.82,1.58-11.66,5.17-13.42,10.94-.89-.74-1.84-1.42-2.82-2.04,0,0,0,0,0,0-2.21-.45-4.5-.85-6.7-.37Z"/>
              <path class="cls-23" d="M96.98,212.19c-15.37-8.48-16.73-32.93-.55-41.14,1.23-.62,2.83-1.46,4.39-2.08-8.09,3.93-12.29,13.28-12.43,22.28-.07,4.66.73,9.61,3.78,13.14,2.74,3.18,7,4.77,11.19,5.03,4.19.25,8.37-.7,12.39-1.92-4.75,4.48-13.05,7.85-18.77,4.7Z"/>
              <path class="cls-23" d="M167.28,219.82c2.67-3.9,2.4-9.56-.63-13.18-3.03-3.63-8.55-4.9-12.86-2.97,3.18-.59,6.22,2.41,6.85,5.58.64,3.17-.68,6.45-2.59,9.07-.8,1.09-1.72,2.12-2.89,2.78-1.78,1-3.93,1.05-5.97.95-4.67-.23-9.97-1.54-12.12-5.69-.41,3.21,1.79,6.31,4.61,7.88,2.83,1.56,6.17,1.87,9.4,1.94,3.05.06,6.15-.07,9.07-.96,2.92-.89,5.39-2.87,7.12-5.39Z"/>
              <path class="cls-23" d="M215.55,229.5c1.18,1.58,1.45,4,.11,5.45-.86.93-2.16,1.28-3.4,1.53-4.74.94-9.62.97-14.45.99-22.61.11-45.21.22-67.82.32-2.28.01-4.63,0-6.71-.93-2.08-.94-3.79-3.08-3.48-5.33,3.58,2.52,7.86,3.01,12.24,3.18,5.3.19,10.67.19,15.82-1.04,5.16-1.24,10.14-3.82,13.41-7.99.41,3.46-1.31,7.09-4.26,8.96,15.3-1.88,30.79-.12,46.2-.41,4.49-.09,10.67-.55,12.33-4.72Z"/>
              <path class="cls-23" d="M119.8,231.54c-3.31,2.62-7.2,4.64-11.39,5.1-4.19.46-8.69-.83-11.54-3.94-13.18,3.57-27.09,4.4-40.6,2.41-2.22-.33-4.51-.76-6.38-1.99-1.88-1.24-3.26-3.48-2.85-5.69,1.8,3.49,6.53,4.23,10.44,4.57,4.5.38,9.07.05,13.47-.97-2.06-.43-3.98-1.52-5.4-3.08,12.05,2.95,25.04,1.87,36.44-3.03-.48,2.21.9,4.53,2.88,5.63,1.97,1.1,4.38,1.16,6.6.74,7.35-1.41,13.22-8.39,13.37-15.87,1.18,5.46-.65,12.64-5.03,16.11Z"/>
            </g>
          </g>
          <g class="cls-35">
            <g>
              <path class="cls-8" d="M33.95,790.21s29.9-165.48,47.86-124.59c17.96,40.89,37.65,156.24,22.82,159.85-14.83,3.61-88.15,5.33-70.68-35.26Z"/>
              <path class="cls-8" d="M72.02,743.67s29.9-165.48,47.86-124.59c17.96,40.89,37.65,156.24,22.82,159.85-14.83,3.61-88.15,5.33-70.68-35.26Z"/>
              <path class="cls-8" d="M151.8,833.1s29.9-165.48,47.86-124.59c17.96,40.89,37.65,156.24,22.82,159.85-14.83,3.61-88.15,5.33-70.68-35.26Z"/>
              <path class="cls-27" d="M-38,821.25S-13.51,655.77,1.2,696.66c14.71,40.89,30.83,156.24,18.69,159.85-12.15,3.61-72.2,5.33-57.88-35.26Z"/>
              <path class="cls-2" d="M-5.34,785.1s29.9-165.48,47.86-124.59c17.96,40.89,37.65,156.24,22.82,159.85-14.83,3.61-88.15,5.33-70.68-35.26Z"/>
              <path class="cls-2" d="M73.23,853.34s29.9-165.48,47.86-124.59c17.96,40.89,37.65,156.24,22.82,159.85-14.83,3.61-88.15,5.33-70.68-35.26Z"/>
              <path class="cls-2" d="M122.76,809.52s29.9-165.48,47.86-124.59c17.96,40.89,37.65,156.24,22.82,159.85-14.83,3.61-88.15,5.33-70.68-35.26Z"/>
              <path class="cls-2" d="M191.09,772.7s29.9-165.48,47.86-124.59c17.96,40.89,37.65,156.24,22.82,159.85-14.83,3.61-88.15,5.33-70.68-35.26Z"/>
              <path class="cls-27" d="M252.13,798.66s26.23-110.11,41.99-82.9c15.76,27.21,33.03,103.96,20.01,106.36-13.01,2.4-77.33,3.54-62-23.46Z"/>
              <path class="cls-27" d="M355.23,825.41s-26.23-110.11-41.99-82.9c-15.76,27.21-33.03,103.96-20.01,106.36,13.01,2.4,77.33,3.54,62-23.46Z"/>
              <path class="cls-27" d="M471.71,811.66s-22.16-122.67-35.48-92.36c-13.32,30.31-27.91,115.81-16.91,118.49,10.99,2.68,65.34,3.95,52.39-26.13Z"/>
            </g>
            <path class="cls-37" d="M-91.85,745.87s291.86-46.72,438.82,100.29c86,86.03-482.98,67.97-482.98,67.97,0,0-11.92-27.92,15.9-121.1,1.26-4.23,28.27-47.16,28.27-47.16Z"/>
            <g class="cls-36">
              <path class="cls-6" d="M380.48,648.05c7.22-2.01,15.19-.25,20.83,6.24,6.62-3.27,14.78-3.2,21.35.18,6.56,3.38,11.36,9.99,12.54,17.28,3.86-.51,7.84-1.02,11.61-.02,3.77,1,7.31,3.89,7.84,7.75,4.68.15,9.59,4.7,7.85,9.04-.99,2.46-3.71,3.82-6.33,4.19-2.63.37-5.3-.02-7.95.08-5.69.21-11.03,2.65-16.45,4.39-4.49,1.44-9.44,2.11-14.13,1.26-3.62-.65-7.18-2.54-9.05-5.72-5.11,4.37-12.18,5.57-18.89,5.88-5,.23-10.13.05-14.79-1.77-4.66-1.82-8.82-5.51-10.11-10.34-6.61,2.32-14.27,1.15-19.49-3.59-3.88-3.53-3.73-10.05-.15-13.78,2.82-2.95,7.39-3.18,11.47-3.08,2.84.06,5.85.25,8.18,1.88-.63-4.22,1.06-8.53,3.72-11.87,3.18-3.99,7.42-6.73,11.95-7.99Z"/>
              <path class="cls-19" d="M380.48,648.05c-4.53,1.26-8.77,4-11.95,7.99-2.66,3.33-4.35,7.65-3.72,11.87.48,3.23,1.62,6.06,4.13,8.15,2.5,2.09,5.6,3.33,8.7,4.34-4.53-10.44-3.7-23.04,2.84-32.35Z"/>
              <g>
                <path class="cls-19" d="M345.3,682.9c5.21,4.74,12.88,5.91,19.49,3.59,1.29,4.83,5.45,8.52,10.11,10.34,4.66,1.82,9.79,2,14.79,1.77,6.71-.31,13.78-1.52,18.89-5.88,1.87,3.17,5.43,5.06,9.05,5.72,4.69.85,9.63.18,14.13-1.26,5.43-1.74,10.76-4.18,16.45-4.39,2.65-.1,5.32.29,7.95-.08,2.63-.37,5.35-1.73,6.33-4.19,1.74-4.35-3.17-8.89-7.85-9.04-.06-.45-.17-.88-.31-1.31-1.84-.19-3.73-.13-5.55.13-9.43,1.32-17.81,7.11-27.27,8.28-2.55.32-5.19.28-7.61-.56-2.12-.74-3.99-2.06-5.64-3.58-3.13-2.89-5.55-6.55-6.97-10.57,1.45,5.72-3.07,11.66-8.64,13.63-5.56,1.97-11.73.9-17.4-.76-3.57-1.04-7.53-2.77-8.6-6.33-4.17,3.47-10.89,3.96-14.92.33-4.57-4.13-2.26-8.18-.54-12.44-2.3.36-4.45,1.16-6.04,2.82-3.58,3.74-3.74,10.25.15,13.78Z"/>
                <path class="cls-23" d="M408.58,692.71c-5.11,4.37-12.18,5.57-18.89,5.88-5,.23-10.13.05-14.79-1.77-4.66-1.82-8.82-5.51-10.11-10.34-6.61,2.32-14.27,1.15-19.49-3.59,6.82,2.65,14.23,3.28,21.31,1.45,2.71,5.34,8.49,8.72,14.43,9.42,5.94.71,11.98-1,17.26-3.82-.08,2.52-1.62,4.95-3.86,6.11,5,.05,9.75-.95,14.14-3.34Z"/>
                <path class="cls-23" d="M462.49,688.51c-.99,2.46-3.71,3.82-6.33,4.19-2.63.37-5.3-.02-7.95.08-5.69.21-11.03,2.65-16.45,4.39-4.49,1.44-9.44,2.11-14.13,1.26-3.62-.65-7.18-2.54-9.05-5.72,5.69,2.19,12.59,2.11,18.43.36,3.32-.99,6.43-2.6,9.68-3.78,8.05-2.93,17.58-3.22,25.8-.77Z"/>
              </g>
            </g>
            <path class="cls-30" d="M-18.54,907.89s136.88-129.61,497.33-124.09c329.57,5.05,539.54,317.16,539.54,317.16l-1026.5-.79-10.37-192.28Z"/>
            <path class="cls-18" d="M-195.41,709.77s411.18-68.95,226.31-11.15c-30.65,9.58,258.2-1.58,179.81,17.29-95.75,23.05-188.37,0-343.22,30.81-203.06,40.4-160.74,14.61-160.08,8.69.66-5.92,97.18-45.64,97.18-45.64Z"/>
            <path class="cls-18" d="M169.33,743.75c-13.57,15.03,61.08-1.45,81.92,9.69,20.84,11.15-53.23-2.91-54.97,4.85-1.74,7.76,49.94,6.09,85.99,12.6,43.46,7.85,86.87,4.31,65.97-6.93-22.51-12.12-.24-16.3,36.84-15.82,37.08.48-33.5-12.82-59.35-14.18-56.01-2.96-142.83-5.24-156.4,9.79Z"/>
            <ellipse class="cls-1" cx="380.05" cy="810.9" rx="8.75" ry="2.92"/>
            <ellipse class="cls-1" cx="204.33" cy="794.94" rx="2.06" ry="8.75" transform="translate(-616.2 815.33) rotate(-77.01)"/>
            <ellipse class="cls-1" cx="403.52" cy="845.85" rx="4.62" ry="1.02"/>
          </g>
          <g class="cls-12">
            <g class="cls-9">
              <path class="cls-6" d="M427,22.89c-18.37,5.49-35.02,19.19-39.7,36.55-10.49-4.13-22.23-6.46-33.03-3.22-10.8,3.23-20.1,13.25-19.62,24.52-9.62-2.05-19.43-4.12-29.22-3.17-9.39.91-19.63,5.25-25.22,13.2-1.75,2.48-2.82,5.59-2.26,8.57-7.52-5.11-17.55-6.3-26.42-5.27-5.11.59-10.3,2.09-14.21,5.43-3.92,3.34-6.29,8.81-4.91,13.77,2.42,8.66,13.48,10.85,22.46,11.44,16.6,1.1,33.2,2.2,49.81,3.29,46.05,3.05,92.39,6.09,138.26.96,3.75-.42,8.13-1.34,9.68-4.78,1.43-3.19-.54-7.08-3.49-8.98-2.94-1.89-6.58-2.28-10.06-2.62,21.02.03,42.03.06,63.05.09,16.82.02,33.64.05,50.46-.15,17.67-.2,35.72-.71,52.29-6.84,3.22-1.19,6.78-3.09,7.39-6.47.59-3.25-2.07-6.38-5.18-7.5-3.11-1.12-6.54-.72-9.82-.31,8.37-.39,11.3-13.06,5.69-19.28-5.61-6.22-15.31-6.68-23.44-4.67-8.13,2.02-15.74,6.02-24.03,7.23-6.06-11.52-18.38-20.02-31.45-20.71-7.8-.41-35.28,4.48-37.59,14.3,4.4-18.74-8.65-38.99-26.78-45.45-10.03-3.57-21.65-3.23-32.66.06Z"/>
              <g>
                <path class="cls-19" d="M280.21,90.77c-1.75,2.48-2.82,5.59-2.26,8.57-7.52-5.11-17.55-6.3-26.42-5.27-5.11.59-10.3,2.09-14.21,5.43-3.92,3.34-6.29,8.81-4.91,13.77,2.42,8.66,13.48,10.85,22.46,11.44,16.6,1.1,33.2,2.2,49.81,3.29,46.05,3.05,92.39,6.09,138.26.96,3.75-.42,8.13-1.34,9.68-4.78,1.43-3.19-.54-7.08-3.49-8.98-2.94-1.89-6.57-2.28-10.06-2.62,21.02.03,42.03.06,63.05.09,16.82.02,33.64.05,50.46-.15,17.67-.2,35.72-.71,52.29-6.84,3.22-1.19,6.78-3.09,7.39-6.47.59-3.25-2.07-6.38-5.18-7.5-3.11-1.12-6.54-.72-9.82-.31,8.37-.39,11.3-13.06,5.69-19.28-5.61-6.22-15.31-6.68-23.44-4.67-8.13,2.02-15.74,6.02-24.03,7.23-2.53-4.81-6.17-9.09-10.48-12.49-5.21,10.31-13.5,19.08-23.66,24.61-14.07,7.67-33.34,8.45-48.42,3.04,6.39-6.28,11.27-14.24,13.96-22.77-.18.39-.34.79-.43,1.2,1.63-6.94.86-14.1-1.67-20.68-2.59,9.26-6.17,18.24-12.19,25.66-7.9,9.74-20.89,16.25-33.07,13.25-5.49-1.35-10.4-4.5-14.58-8.3-13.08-11.88-18.66-31.7-13.68-48.29-11.51,7-20.67,17.36-23.95,29.52,0,0,0,0,0,0,.04,11.78,4.95,23.58,13.63,31.59-18.44,5.77-40.02,5.47-58.3-.8,5.45,7.25,13.28,12.68,21.98,15.24-18.4,6.5-39.15,6.09-57.28-1.12-5.05-2.01-10.32-4.99-12.11-10.12-1.82-5.2.67-11.11,4.67-14.9.42-.4.86-.77,1.3-1.13-8.1,1.65-16.23,5.79-20.98,12.56Z"/>
                <path class="cls-23" d="M449.12,115.2c2.94,1.89,4.92,5.78,3.49,8.98-1.55,3.44-5.93,4.36-9.68,4.78-45.87,5.13-92.21,2.09-138.26-.96-16.6-1.1-33.2-2.2-49.81-3.29-8.97-.59-20.03-2.78-22.46-11.44-1.39-4.96.99-10.43,4.91-13.77-1.82,3.57-.25,7.97,2.49,10.89,2.74,2.93,6.6,4.52,10.43,5.73,17.43,5.53,36.14,4.82,54.41,4.05-5.83-.8-11.17-4.54-13.93-9.74,23.16,10.32,49.27,11.18,74.61,11.87,15.4.42,31.01.82,46.02-2.66-7.2.13-14.41-2.08-20.31-6.2,19.55,4.02,38.79,6.89,58.08,1.77Z"/>
              </g>
            </g>
          </g>
          <g class="cls-29">
            <path class="cls-16" d="M-25.01,778.49s25.22-44.35,49.55-35.93c24.32,8.42,27.93,20.51,27.93,20.51,0,0,15.76-58.03,37.84-53.08,22.07,4.95,29.73,78.37,29.73,78.37,0,0,46.84-40.18,59.46-15.62,0,0,2.25,25.81-19.37,53.91,0,0,59.46-41,78.37,11.71,0,0,19.64-42.51,63.78-15.03,0,0,5.58-70.36,51.53,1.98,0,0,62.16-14.6,23.42,26.58,0,0,66.66-7.64,50.45,52.25,0,0,36.48,10.82,19.82,50.45H-25.7l.69-176.09Z"/>
            <g>
              <path class="cls-33" d="M75.94,785.87c-3.38,1.5-6.05,5.02-5.62,8.69.35,3.05,2.73,5.59,5.52,6.88,2.79,1.29,5.94,1.53,9.01,1.55,2.88.02,5.84-.16,8.44-1.39,2.6-1.23,4.78-3.72,4.87-6.6.08-2.56-1.5-4.96-3.57-6.47-4.8-3.51-13.14-5.1-18.66-2.66Z"/>
              <path class="cls-25" d="M98.17,794.99c.05-1.47-.46-2.89-1.29-4.12-.45,2.99-2.8,5.54-5.58,6.85-3.02,1.43-6.46,1.63-9.8,1.61-3.4-.02-6.88-.28-10-1.6,1.03,1.6,2.61,2.88,4.35,3.69,2.79,1.29,5.94,1.53,9.01,1.55,2.88.02,5.84-.16,8.44-1.39,2.6-1.23,4.78-3.72,4.87-6.6Z"/>
              <path class="cls-7" d="M83.22,787.6c-1.48-.62-3.42-.19-4.88.34-.77.27-1.5.65-2.18,1.11-.86.59-1.18,1.11-1.75,1.94-.47.68.29,1.71,1.04,1.14,1-.76,2.32-1.49,3.5-1.93,1.31-.49,2.61-.3,3.93-.61.91-.21,1.4-1.54.34-1.99Z"/>
            </g>
            <path class="cls-22" d="M399.84,1013.64s74.49-144.36-14.83-87.55c0,0,37.7-105.32-35.01-41.29,0,0,11.24-76.03-44.04-19.5,0,0,0-92.91-23.86-46.54-17.36,33.75-28.71,64.92-28.71,64.92,0,0-8.55-62.41-24.13-68.45-34.55-13.4-85.4,62.27-85.4,62.27,0,0,69.49-144.63.06-86.45-69.44,58.18-66.6,39.63-66.6,39.63,0,0,33.6-157.52-29.78-15.46,0,0,13.25-59.4-36.21-28.59s-98.93,142.98-98.93,142.98c0,0,39.75,66.25,44.16,68.01,4.42,1.77,258.86,30.91,258.86,30.91l111.24-10.6,73.18-4.31Z"/>
            <g>
              <path class="cls-3" d="M125.56,815.01c-1.23,1.72-1.52,4.24-.25,5.93,1.06,1.4,2.97,1.96,4.73,1.79,1.75-.17,3.38-.97,4.9-1.86,1.43-.83,2.84-1.78,3.76-3.14.93-1.36,1.28-3.23.48-4.68-.71-1.29-2.18-2.01-3.65-2.15-3.39-.34-7.97,1.31-9.98,4.12Z"/>
              <path class="cls-25" d="M139.19,813.04c-.41-.74-1.07-1.29-1.84-1.66.65,1.61.23,3.55-.76,5.01-1.08,1.58-2.72,2.69-4.37,3.65-1.68.98-3.48,1.87-5.4,2.12.97.49,2.13.66,3.22.56,1.75-.17,3.38-.97,4.9-1.86,1.43-.83,2.84-1.78,3.76-3.14.93-1.36,1.28-3.23.48-4.68Z"/>
              <path class="cls-7" d="M129.66,813.74c-.91.12-1.74.9-2.31,1.59-.3.36-.55.76-.75,1.18-.25.54-.26.89-.3,1.47-.03.47.64.76.85.26.27-.67.71-1.41,1.17-1.97.5-.62,1.2-.91,1.76-1.44.39-.37.24-1.17-.41-1.08Z"/>
            </g>
            <g>
              <g>
                <path class="cls-24" d="M237.24,837.35l75.03,91.64c1.54.97,3.63.43,4.52-1.16.89-1.59.66-3.62-.15-5.25-.81-1.63-2-3.1-3.29-4.39l-69.59-85c-.24.18-.48.38-.72.56-1.15-1.09-3.13-1.17-4.37-.17-1.24,1-2.26,2.4-1.43,3.76Z"/>
                <path class="cls-25" d="M313.34,918.2l-69.59-85c-.24.18-.48.38-.72.56-.85-.8-2.14-1.05-3.26-.73l70.37,85.95c1.46,1.5,2.83,3.18,3.8,5.02.92,1.72,1.31,3.78.67,5.41.89-.18,1.7-.72,2.18-1.56.89-1.59.66-3.62-.15-5.25-.81-1.63-2-3.1-3.29-4.39Z"/>
              </g>
              <path class="cls-28" d="M189.98,843.74c-8.53-5.19-15.81-13.43-17.21-23.31-1.07-7.57,1.57-15.58,6.94-21.03,5.37-5.44,13.35-8.19,20.93-7.22.71-7.7,5.42-14.92,12.18-18.68,6.76-3.76,15.38-3.94,22.29-.48,8,4.01,13.13,12.2,16.08,20.65,4.73,13.53,5.62,31.61-.77,44.87-2.65,5.5-10.79,8.29-16.31,10.04-6.79,2.15-14,2.97-21.1,2.42-8.1-.62-16.09-3.04-23.04-7.27Z"/>
              <path class="cls-25" d="M235.12,773.03c-3.79-1.9-8.09-2.69-12.31-2.41.64.25,1.28.52,1.89.83,8,4.01,13.13,12.2,16.08,20.65,4.73,13.53,5.62,31.61-.77,44.87-2.65,5.5-10.79,8.29-16.31,10.04-6.42,2.03-13.21,2.86-19.93,2.48,3.03.77,6.13,1.28,9.24,1.52,7.1.55,14.31-.27,21.1-2.42,5.52-1.75,13.66-4.55,16.31-10.04,6.39-13.25,5.5-31.34.77-44.87-2.95-8.45-8.08-16.64-16.08-20.65Z"/>
              <path class="cls-7" d="M184.84,804.63c-4.62,5.33-3.93,12.67-.52,18.45,3.04,5.16,9.11,11.56,15.65,10.66,1.36-.18,1.89-1.83,1.09-2.86-2.72-3.47-6.98-5.19-9.69-8.77-3.14-4.15-4.64-9.35-1.52-13.95,2.25-3.32-2.46-6.48-5.01-3.54Z"/>
            </g>
            <path class="cls-5" d="M-10,865.93c.15-2.75-18.74-153.11,53,3.7,0,0,40.26-152.6,38.86,47.53,0,0,56.57-237.81,54.09-31.8,0,0,50.6-143.98,16.68,17.22-2.03,9.65,85.77-122.18,60.69,16.5,0,0,17.53-65.98,31.95-35.49,22.97,48.58,30.47,107.51,30.47,107.51h-26.51l-328.67-7.18-34.26-74.44,103.69-43.56Z"/>
            <path class="cls-5" d="M266.17,1005.36s-29.15-189.02,34.45-80.38c0,0-7.98-113.62,16.42-68.01,0,0,16.23-68.41,29.94-10.8,13.71,57.61,9.1,39.06,9.1,39.06,0,0,55.79-80.09,31.64,12.91,0,0,56.66-39.71,24.6,27.46-32.06,67.17-143.5,89.47-143.5,89.47l-2.65-9.72Z"/>
          </g>
          <g>
            <path class="cls-31" d="M354.25,757.19c-3.34,5.22-1.42,11.32,3.04,15.27,6.35,5.63,7.37.38,10.27-.49,2.51-.75-2.8-4.65-1.25-7.07,1.53-2.39,8.2-1.21,7.85-3.78-.41-3.04,2.16-5.76-4.77-7.58-5.76-1.51-11.8-1.58-15.14,3.65Z"/>
            <path class="cls-32" d="M360.89,755.27s9.55-1.48,10.1.93c.55,2.4-6.82,5.67-6.56,8.09.25,2.43,1.37,2.86.74,4.27-.62,1.41-2.22,2.39-3.51,3.76-1.29,1.36-6.4-6.49-6.25-8.47.16-1.98-2-8.22,5.48-8.57Z"/>
            <path class="cls-13" d="M355.16,757.5c-6.5,10.16-19.94,13.17-30.02,6.72-10.09-6.45-13-19.91-6.5-30.07,6.5-10.16,19.94-13.17,30.02-6.72,10.09,6.45,13,19.91,6.5,30.07Z"/>
            <path class="cls-31" d="M319.54,734.46c3.34-5.23,1.42-11.32-3.04-15.27-6.35-5.63-7.37-.38-10.27.49-2.51.75,2.4,6.21-.48,6.24-6.14.05-6.46,2.05-6.12,4.61.41,3.04-2.16,5.76,4.77,7.58,5.76,1.51,11.8,1.58,15.14-3.65Z"/>
            <path class="cls-26" d="M350.55,754.43c-5.86,2.56-8.45-3.34-11.34-9.97-2.89-6.63-5.01-11.48.86-14.04,5.86-2.56,12.96.74,15.86,7.37,2.9,6.63.49,14.08-5.37,16.64Z"/>
            <path class="cls-4" d="M335.05,724.96s-9.71,5.06-10.94,13.35c-1.23,8.29,11.31,11.27,8.36,14.43-2.95,3.16,10.29,9.64,15.09,9.65,4.8.01-12.62,9.08-24.23-1.45-13.82-12.54-2.61-35.31,11.7-35.98Z"/>
            <path class="cls-10" d="M355.52,745.21s2.67-6.79-3.3-10.47c-5.98-3.68,2.77,15.06,3.3,10.47Z"/>
            <path class="cls-32" d="M318.71,724.17s2.5,4.08-.08,9.97c-.93,2.12-10.35,3.59-12.53,2.62-2.17-.97-.18-3.45,1.08-5.42,1.26-1.97,3.96-.54,4.81-1.44.86-.9-3.42-3.77-2.22-3.7,1.2.08,5.49,3.23,5.91,1.56.42-1.68,1.97-7.44,3.03-3.59Z"/>
            <path class="cls-4" d="M356.63,755.19s5.58-2.88,7.74-.6c1.25,1.32-4.32,4.58-4.43,5.42-.12.84,3.16,2.08,1.49,4.01-1.67,1.92-4.24,3.34-3.42,4,.82.67,1.17,2.69-.25,1.78-1.42-.91-8.22-10.25-1.13-14.61Z"/>
          </g>
          <g>
            <path class="cls-3" d="M207.57,903.52c-1.23,1.72-1.52,4.24-.25,5.93,1.06,1.4,2.97,1.96,4.73,1.79,1.75-.17,3.38-.97,4.9-1.86,1.43-.83,2.84-1.78,3.76-3.14.93-1.36,1.28-3.23.48-4.68-.71-1.29-2.18-2.01-3.65-2.15-3.39-.34-7.97,1.31-9.98,4.12Z"/>
            <path class="cls-25" d="M221.19,901.55c-.41-.74-1.07-1.29-1.84-1.66.65,1.61.23,3.55-.76,5.01-1.08,1.58-2.72,2.69-4.37,3.65-1.68.98-3.48,1.87-5.4,2.12.97.49,2.13.66,3.22.56,1.75-.17,3.38-.97,4.9-1.86,1.43-.83,2.84-1.78,3.76-3.14.93-1.36,1.28-3.23.48-4.68Z"/>
            <path class="cls-7" d="M211.67,902.25c-.91.12-1.74.9-2.31,1.59-.3.36-.55.76-.75,1.18-.25.54-.26.89-.3,1.47-.03.47.64.76.85.26.27-.67.71-1.41,1.17-1.97.5-.62,1.2-.91,1.76-1.44.39-.37.24-1.17-.41-1.08Z"/>
          </g>
          <g>
            <path class="cls-33" d="M15.86,893.66c-1.1,3.53-.21,7.86,2.83,9.96,2.53,1.75,6,1.63,8.81.38,2.81-1.25,5.07-3.46,7.11-5.76,1.91-2.15,3.73-4.5,4.52-7.27.79-2.77.35-6.05-1.75-8.01-1.87-1.75-4.72-2.14-7.22-1.58-5.81,1.3-12.5,6.52-14.3,12.27Z"/>
            <path class="cls-25" d="M37.38,882.97c-1.08-1.01-2.48-1.56-3.95-1.75,1.96,2.31,2.32,5.76,1.48,8.71-.92,3.21-3.03,5.94-5.25,8.44-2.26,2.54-4.74,4.99-7.79,6.47,1.88.28,3.89-.06,5.64-.84,2.81-1.25,5.07-3.46,7.11-5.76,1.91-2.15,3.73-4.5,4.52-7.27.79-2.77.35-6.05-1.75-8.01Z"/>
            <path class="cls-7" d="M21.97,889.33c-1.45.7-2.39,2.45-2.97,3.89-.3.76-.51,1.56-.6,2.37-.12,1.04.06,1.62.31,2.6.2.8,1.48.9,1.54-.04.09-1.26.41-2.72.86-3.9.49-1.31,1.49-2.16,2.13-3.35.44-.82-.24-2.07-1.27-1.57Z"/>
          </g>
          <g>
            <path class="cls-33" d="M118.59,864.78c-1.63.72-2.92,2.43-2.72,4.2.17,1.47,1.32,2.7,2.67,3.32,1.35.62,2.87.74,4.36.75,1.39,0,2.82-.08,4.08-.67,1.26-.59,2.31-1.8,2.35-3.19.04-1.24-.73-2.39-1.73-3.13-2.32-1.7-6.35-2.46-9.01-1.28Z"/>
            <path class="cls-25" d="M129.33,869.19c.02-.71-.22-1.4-.62-1.99-.22,1.45-1.35,2.68-2.69,3.31-1.46.69-3.12.79-4.74.78-1.64,0-3.32-.13-4.83-.77.5.77,1.26,1.39,2.1,1.78,1.35.62,2.87.74,4.36.75,1.39,0,2.82-.08,4.08-.67,1.26-.59,2.31-1.8,2.35-3.19Z"/>
            <path class="cls-7" d="M122.11,865.62c-.72-.3-1.65-.09-2.36.16-.37.13-.73.31-1.05.54-.42.29-.57.54-.85.94-.23.33.14.82.5.55.48-.37,1.12-.72,1.69-.93.63-.24,1.26-.15,1.9-.29.44-.1.67-.75.16-.96Z"/>
          </g>
          <g>
            <path class="cls-33" d="M331.55,883.36c-2.28,1.01-4.08,3.39-3.8,5.87.24,2.06,1.84,3.77,3.73,4.64,1.88.87,4.01,1.03,6.09,1.05,1.94.01,3.94-.11,5.7-.94,1.76-.83,3.23-2.51,3.29-4.46.05-1.73-1.01-3.35-2.41-4.37-3.24-2.37-8.87-3.44-12.6-1.79Z"/>
            <path class="cls-25" d="M346.55,889.52c.03-1-.31-1.95-.87-2.78-.3,2.02-1.89,3.74-3.77,4.63-2.04.96-4.36,1.1-6.62,1.09-2.29-.01-4.65-.19-6.75-1.08.69,1.08,1.76,1.95,2.93,2.49,1.88.87,4.01,1.03,6.09,1.05,1.94.01,3.94-.11,5.7-.94,1.76-.83,3.23-2.51,3.29-4.46Z"/>
            <path class="cls-7" d="M336.46,884.53c-1-.42-2.31-.13-3.3.23-.52.18-1.01.44-1.47.75-.58.4-.79.75-1.18,1.31-.32.46.2,1.15.71.77.68-.51,1.57-1,2.36-1.3.89-.33,1.76-.21,2.65-.41.61-.14.94-1.04.23-1.34Z"/>
          </g>
          <g>
            <path class="cls-21" d="M147.67,66.26c-3.68-2.19-7.83-.73-10.46,2.44-3.74,4.5-.1,5.09.57,7.07.58,1.71,3.14-2.03,4.85-1.02,1.68,1,1.02,5.62,2.78,5.33,2.08-.35,4.02,1.36,5.12-3.46.92-4.01.82-8.17-2.85-10.35Z"/>
            <path class="cls-34" d="M149.14,70.79s1.23,6.55-.41,6.98c-1.65.43-4.06-4.57-5.72-4.34-1.67.23-1.94,1-2.92.61-.98-.4-1.7-1.48-2.67-2.34-.97-.86,4.33-4.56,5.7-4.49,1.37.06,5.62-1.56,6.03,3.59Z"/>
            <path class="cls-21" d="M147.47,66.89c-7.15-4.25-9.52-13.45-5.3-20.54,4.22-7.1,13.43-9.4,20.58-5.15,7.15,4.25,9.52,13.45,5.3,20.54-4.22,7.1-13.43,9.4-20.58,5.15Z"/>
            <path class="cls-21" d="M162.56,41.83c3.68,2.19,7.83.73,10.46-2.44,3.74-4.51.1-5.09-.57-7.07-.58-1.71-4.23,1.79-4.31-.19-.17-4.23-1.55-4.41-3.32-4.12-2.08.35-4.02-1.36-5.12,3.46-.91,4.01-.82,8.17,2.85,10.35Z"/>
            <path class="cls-34" d="M149.48,63.65c-1.89-3.98,2.12-5.9,6.62-8.04,4.51-2.14,7.8-3.71,9.7.28,1.89,3.98-.22,8.95-4.73,11.09-4.51,2.14-9.69.65-11.59-3.33Z"/>
            <path class="cls-17" d="M169.45,52.31s-3.7-6.58-9.45-7.24c-5.74-.66-7.51,8.04-9.76,6.09-2.24-1.96-6.41,7.31-6.32,10.62.1,3.31-6.54-8.5.46-16.73,8.34-9.81,24.28-2.59,25.06,7.27Z"/>
            <path class="cls-10" d="M155.95,66.87s4.74,1.69,7.14-2.51c2.4-4.2-10.32,2.24-7.14,2.51Z"/>
            <path class="cls-17" d="M169.63,41.03s-2.76,1.82-6.88.17c-1.48-.59-2.71-7.06-2.08-8.58.62-1.52,2.37-.2,3.76.63,1.39.82.46,2.71,1.1,3.28.64.57,2.53-2.44,2.5-1.61-.02.83-2.11,3.86-.94,4.11,1.17.25,5.17,1.19,2.54,2.01Z"/>
            <path class="cls-17" d="M149.1,67.86s2.11,3.78.59,5.32c-.88.89-3.25-2.87-3.83-2.94s-1.36,2.22-2.73,1.12c-1.36-1.11-2.39-2.85-2.83-2.27-.44.58-1.83.87-1.24-.13.59-1,6.88-5.89,10.04-1.1Z"/>
          </g>
          <g>
            <path class="cls-20" d="M45.37,221.8c-4.44,4.06-6.73,10.89-4.18,16.34,2.13,4.53,7.12,7.21,12.1,7.76,4.98.55,9.97-.72,14.73-2.29,4.45-1.47,8.94-3.28,12.33-6.53,3.38-3.25,5.45-8.23,4.1-12.72-1.21-4-4.89-6.88-8.87-8.14-9.24-2.93-22.94-1.06-30.2,5.57Z"/>
            <path class="cls-25" d="M84.44,224.37c-.69-2.3-2.21-4.23-4.13-5.7.86,4.86-1.45,10.02-5.06,13.48-3.93,3.77-9.14,5.88-14.31,7.58-5.26,1.73-10.77,3.14-16.28,2.73,2.42,1.93,5.53,3.1,8.63,3.44,4.98.55,9.97-.72,14.73-2.29,4.45-1.47,8.94-3.28,12.32-6.53,3.38-3.25,5.45-8.23,4.1-12.72Z"/>
            <path class="cls-7" d="M57.52,220.7c-2.62-.19-5.37,1.48-7.37,3.05-1.05.82-1.99,1.78-2.79,2.84-1.02,1.36-1.24,2.33-1.7,3.91-.37,1.3,1.34,2.48,2.2,1.21,1.15-1.7,2.81-3.5,4.41-4.8,1.77-1.44,3.88-1.83,5.75-2.97,1.3-.8,1.36-3.11-.51-3.25Z"/>
          </g>
        </g>
      </g>
    </g>
  </g>
</svg>