<?xml version="1.0" encoding="UTF-8"?>
<svg id="Layer_2" data-name="Layer 2" xmlns="http://www.w3.org/2000/svg" xmlns:xlink="http://www.w3.org/1999/xlink" viewBox="0 0 1920 1080">
  <defs>
    <style>
      .cls-1 {
        fill: #6cce6a;
      }

      .cls-2, .cls-3, .cls-4, .cls-5, .cls-6, .cls-7, .cls-8, .cls-9, .cls-10, .cls-11, .cls-12, .cls-13, .cls-14, .cls-15, .cls-16 {
        isolation: isolate;
      }

      .cls-2, .cls-5, .cls-14 {
        fill: #008ea7;
      }

      .cls-2, .cls-12, .cls-13 {
        opacity: .1;
      }

      .cls-17 {
        fill: #8fd9ef;
      }

      .cls-3 {
        mix-blend-mode: lighten;
      }

      .cls-3, .cls-18 {
        fill: #fff;
      }

      .cls-3, .cls-19 {
        opacity: .8;
      }

      .cls-4, .cls-5, .cls-7, .cls-15, .cls-16 {
        opacity: .3;
      }

      .cls-4, .cls-20 {
        fill: #f6ca10;
      }

      .cls-21 {
        fill: #c3c7f6;
      }

      .cls-22 {
        fill: #00dc40;
      }

      .cls-23 {
        fill: #dcd8c6;
      }

      .cls-6 {
        fill: #c0b1bc;
      }

      .cls-6, .cls-24 {
        opacity: .5;
      }

      .cls-25 {
        fill: #98e3f4;
      }

      .cls-7 {
        fill: #ef5451;
      }

      .cls-26 {
        fill: #f3eac7;
      }

      .cls-27 {
        fill: #81467d;
      }

      .cls-28 {
        fill: none;
      }

      .cls-29 {
        clip-path: url(#clippath-1);
      }

      .cls-30, .cls-13 {
        fill: #f5fbff;
      }

      .cls-31 {
        fill: #98d5cc;
      }

      .cls-8 {
        fill: #c2c3ca;
        mix-blend-mode: multiply;
        opacity: .6;
      }

      .cls-32 {
        fill: #aae6ff;
      }

      .cls-33 {
        fill: #0fb546;
      }

      .cls-34 {
        fill: #f58a28;
      }

      .cls-10, .cls-14 {
        opacity: .05;
      }

      .cls-10, .cls-35 {
        fill: #70cacd;
      }

      .cls-36 {
        fill: #00e2ff;
      }

      .cls-37 {
        fill: #fcb82e;
      }

      .cls-11 {
        opacity: .2;
      }

      .cls-11, .cls-38, .cls-16 {
        fill: #fdfadb;
      }

      .cls-12, .cls-15 {
        fill: #79244b;
      }

      .cls-39 {
        fill: #0cc43c;
      }

      .cls-40 {
        fill: #dff2fd;
      }

      .cls-41 {
        fill: #eceef0;
      }

      .cls-42 {
        fill: #f6bc9f;
      }

      .cls-43 {
        fill: #f4efd7;
      }

      .cls-44 {
        fill: #acdbcf;
      }

      .cls-45 {
        fill: #88d3e5;
      }

      .cls-46 {
        fill: #ff5eb2;
      }

      .cls-47 {
        clip-path: url(#clippath-2);
      }

      .cls-48 {
        fill: #86e885;
      }

      .cls-49 {
        fill: #3bc0cb;
      }

      .cls-50 {
        fill: #fdec41;
      }

      .cls-51 {
        fill: #f05757;
      }

      .cls-52 {
        clip-path: url(#clippath);
      }

      .cls-53 {
        fill: #76dd73;
      }
    </style>
    <clipPath id="clippath">
      <rect class="cls-28" width="1920" height="1080"/>
    </clipPath>
    <clipPath id="clippath-1">
      <rect class="cls-28" y="535.49" width="1920" height="544.51"/>
    </clipPath>
    <clipPath id="clippath-2">
      <path class="cls-28" d="M1516.81,970c-19.46,0-35.24,15.1-35.24,33.73s15.78,33.73,35.24,33.73,35.24-15.1,35.24-33.73-15.78-33.73-35.24-33.73ZM1516.81,1022.62c-10.9,0-19.74-8.46-19.74-18.9s8.84-18.9,19.74-18.9,19.74,8.46,19.74,18.9-8.84,18.9-19.74,18.9Z"/>
    </clipPath>
  </defs>
  <g id="Layer_1-2" data-name="Layer 1">
    <g class="cls-9">
      <g id="Layer_2-2" data-name="Layer 2">
        <g id="Layer_2-2" data-name="Layer 2-2">
          <rect class="cls-32" width="1920" height="1080"/>
          <g class="cls-19">
            <path class="cls-18" d="M1444.52,39.78c-32.82,9.81-62.56,34.28-70.92,65.28-18.73-7.38-39.71-11.53-59-5.76-19.29,5.78-35.9,23.67-35.05,43.79-17.19-3.67-34.7-7.36-52.19-5.67-16.77,1.62-35.07,9.39-45.05,23.58-3.12,4.44-5.04,9.98-4.03,15.31-13.44-9.14-31.35-11.25-47.19-9.42-9.13,1.05-18.39,3.73-25.38,9.7s-11.24,15.74-8.76,24.6c4.33,15.47,24.08,19.38,40.11,20.44,29.65,1.96,59.31,3.92,88.96,5.88,82.25,5.44,165.03,10.87,246.95,1.72,6.7-.75,14.52-2.39,17.28-8.54,2.56-5.7-.97-12.65-6.23-16.03s-11.74-4.07-17.96-4.68c37.54.05,75.08.1,112.62.15,30.04.04,60.09.08,90.13-.26,31.56-.36,63.8-1.27,93.41-12.22,5.75-2.13,12.11-5.52,13.21-11.55,1.05-5.81-3.7-11.4-9.26-13.4-5.56-1.99-11.68-1.28-17.53-.55,14.94-.7,20.19-23.34,10.16-34.44-10.03-11.11-27.35-11.94-41.87-8.33-14.52,3.6-28.12,10.75-42.92,12.91-10.83-20.58-32.83-35.77-56.17-37-13.93-.74-63.01,8-67.14,25.55,7.86-33.47-15.44-69.64-47.83-81.17-17.92-6.38-38.68-5.77-58.33.11h-.02Z"/>
            <g>
              <path class="cls-30" d="M1182.32,161.01c-3.12,4.44-5.04,9.98-4.03,15.31-13.44-9.14-31.35-11.25-47.2-9.42-9.13,1.05-18.39,3.73-25.38,9.7s-11.24,15.74-8.76,24.6c4.33,15.47,24.08,19.38,40.11,20.44,29.65,1.96,59.31,3.92,88.96,5.88,82.25,5.44,165.03,10.87,246.95,1.72,6.7-.75,14.52-2.39,17.28-8.54,2.56-5.7-.97-12.65-6.23-16.03s-11.74-4.07-17.96-4.68c37.54.05,75.08.1,112.62.15,30.04.04,60.09.08,90.13-.26,31.56-.36,63.8-1.27,93.41-12.22,5.75-2.13,12.12-5.52,13.21-11.55,1.05-5.81-3.7-11.4-9.26-13.4-5.56-1.99-11.68-1.28-17.53-.55,14.94-.7,20.19-23.34,10.16-34.44-10.03-11.11-27.35-11.94-41.87-8.33-14.52,3.6-28.12,10.75-42.92,12.91-4.52-8.6-11.01-16.23-18.72-22.32-9.3,18.42-24.12,34.08-42.25,43.96-25.13,13.69-59.56,15.09-86.49,5.42,11.4-11.21,20.13-25.43,24.93-40.66-.32.7-.6,1.41-.77,2.15,2.91-12.4,1.54-25.18-2.99-36.93-4.63,16.54-11.03,32.58-21.77,45.83-14.1,17.39-37.32,29.03-59.06,23.67-9.8-2.42-18.58-8.03-26.05-14.82-23.35-21.22-33.32-56.62-24.43-86.26-20.55,12.51-36.93,31-42.78,52.73h-.02c.07,21.05,8.85,42.11,24.35,56.43-32.95,10.31-71.48,9.76-104.13-1.43,9.73,12.95,23.72,22.64,39.26,27.22-32.86,11.61-69.92,10.89-102.31-2-9.01-3.59-18.43-8.91-21.63-18.07-3.24-9.28,1.2-19.85,8.34-26.61.75-.71,1.53-1.38,2.33-2.01-14.47,2.94-28.99,10.35-37.48,22.43l-.02-.02Z"/>
              <path class="cls-40" d="M1748.62,162.15c14.94-.7,20.19-23.34,10.16-34.44-10.03-11.11-27.35-11.94-41.87-8.33,4.81.02,10.82.61,15.05,2.91,4.23,2.3,7.68,6.38,8.34,11.15.35,2.55-.1,5.17-.9,7.62-3.58,10.92-13.81,18.5-24.59,22.48-16.16,5.98-33.91,5.39-51.13,4.72,28.48,3.8,56.24-4.75,84.94-6.1h0Z"/>
              <path class="cls-40" d="M1484.02,204.66c5.26,3.38,8.79,10.33,6.23,16.03-2.76,6.15-10.58,7.79-17.28,8.54-81.92,9.16-164.7,3.73-246.95-1.72-29.65-1.96-59.31-3.92-88.96-5.88-16.03-1.06-35.78-4.97-40.11-20.44-2.48-8.85,1.77-18.63,8.76-24.6-3.25,6.38-.45,14.23,4.45,19.46,4.9,5.23,11.8,8.07,18.63,10.24,31.13,9.87,64.55,8.6,97.18,7.24-10.41-1.43-19.96-8.1-24.87-17.39,41.37,18.43,88,19.96,133.27,21.2,27.51.75,55.38,1.47,82.19-4.75-12.85.23-25.75-3.71-36.28-11.08,34.92,7.18,69.28,12.3,103.74,3.16h0Z"/>
              <path class="cls-40" d="M1466.05,199.98c37.54.05,75.08.1,112.62.15,30.04.04,60.09.08,90.13-.26,31.56-.36,63.8-1.27,93.41-12.22,5.75-2.13,12.12-5.52,13.21-11.55,1.05-5.81-3.7-11.4-9.26-13.4.14,4.6-3.86,8.42-7.75,10.88s-8.49,3.47-13,4.36c-50.86,10.04-103.11,9.84-154.94,9.6-20.21-.09-41.76-.58-58.48-11.92-19.49,14.17-41.84,23.9-65.92,24.36h-.02Z"/>
            </g>
          </g>
          <g class="cls-24">
            <path class="cls-18" d="M226.03,512.76c-.31-2.15-1.72-4.12-3.65-5.11-1.94-.99-4.35-.98-6.28.03-1.2-3.15-4.52-5.35-7.88-5.24-3.36.11-6.53,2.53-7.52,5.75-2.12-.12-4.11,1.88-3.98,4-1.61-.73-3.55,1.16-3.17,2.88.38,1.73,2.45,2.71,4.17,2.29,4.3,3.17,10.36,3.78,15.2,1.52,3.85,2.55,9.75,1.07,11.94-2.99-.29.54,4.31,1.4,5.2-.55,1.01-2.22-2.32-3.55-4.01-2.57h-.02Z"/>
            <g>
              <path class="cls-30" d="M193.54,515.06c.38,1.73,2.45,2.71,4.17,2.29,4.3,3.17,10.36,3.78,15.2,1.52,3.85,2.55,9.75,1.07,11.94-2.99-.29.54,4.31,1.4,5.2-.55,1.01-2.22-2.32-3.55-4.01-2.57-.31-2.15-1.72-4.12-3.65-5.11-.54-.28-1.13-.47-1.72-.6.65.81,1.18,1.71,1.4,2.71.3,1.38-.14,3.01-1.36,3.74-.85.51-1.9.5-2.88.45-1.16-.05-2.54-.29-3-1.36-.16-.36-.17-.76-.24-1.15-.36-1.96-2.29-3.5-4.28-3.4,1.03.12,1.7,1.31,1.49,2.32-.21,1.01-1.09,1.78-2.06,2.13s-2.03.34-3.07.28c-1.73-.09-3.64-.4-4.72-1.75-.84.91-2.35,1.1-3.4.44-.51-.33-.87-.83-1.07-1.4-.02-.05-.03-.11-.04-.19-.48.67-.76,1.49-.71,2.32-1.61-.73-3.55,1.16-3.17,2.88h-.02Z"/>
              <path class="cls-40" d="M224.85,515.88c-.29.54,4.31,1.4,5.2-.55,1.01-2.22-2.32-3.55-4.01-2.57.79-.1,1.65-.12,2.43.03.43.08.91.24,1.09.65.07.16.08.35.07.53-.03.6-.32,1.2-.82,1.53-.45.29-1,.33-1.53.35-.71.03-1.71.06-2.42.04h0Z"/>
              <path class="cls-40" d="M224.85,515.88c-2.2,4.06-8.09,5.53-11.94,2.99-4.84,2.26-10.9,1.66-15.2-1.52-1.72.42-3.79-.57-4.17-2.29-.38-1.73,1.56-3.61,3.17-2.88-1.16.11-1.94,1.5-1.59,2.61s1.82,1.7,2.84,1.13c-.25-.63-.37-1.31-.36-1.99.45.98,1.69,1.29,2.77,1.32,1.04.03,2.09-.09,3.1-.36-.25,1.27-1.41,2.31-2.7,2.41,1.87,1.05,4.1,1.27,6.24,1.25,1.45-.01,2.95-.14,4.2-.86s2.19-2.17,1.89-3.59c1.05.94,1.35,2.63.69,3.88,1.73.93,3.82,1.08,5.73.63s3.83-1.47,5.33-2.73Z"/>
            </g>
          </g>
          <g class="cls-24">
            <path class="cls-18" d="M630.26,175.93c-15.37-8.48-16.73-32.93-.55-41.14,1.99-1.01,4.95-2.57,7.16-2.89,1.12-.16,8.46.78,8.38,2.43.27-5.61,4.43-10.38,9.27-13.23,12.15-7.15,29.51-3.39,37.62,8.15s5.77,29.14-5.07,38.16c4.31-1.93,9.83-.65,12.86,2.97,3.03,3.63,3.3,9.29.63,13.18,5.7-3.29,13.84-1.28,17.35,4.3,8.64-1.87,17.84-1.1,26.05,2.16,1.83.73,3.69,1.64,4.88,3.22,1.18,1.58,1.45,4,.11,5.45-.86.93-2.16,1.28-3.4,1.53-4.74.94-9.62.97-14.45.99-22.61.11-45.21.22-67.82.32-2.28,0-4.63,0-6.71-.93-2.08-.94-3.79-3.08-3.48-5.33-3.31,2.62-7.2,4.64-11.39,5.1s-8.69-.83-11.54-3.94c-13.18,3.57-27.09,4.4-40.6,2.41-2.22-.33-4.51-.76-6.38-1.99-1.88-1.24-3.26-3.48-2.85-5.69.42-2.22,2.53-3.8,4.73-4.28,2.2-.48,4.49-.07,6.7.37-.87-4.3,1.73-8.76,5.41-11.16,3.67-2.4,8.2-3.1,12.59-3.23,6.95-.22,13.93.83,20.51,3.06h0Z"/>
            <g>
              <path class="cls-30" d="M585.05,186.89c-2.2.48-4.32,2.07-4.73,4.28-.42,2.21.97,4.45,2.85,5.69s4.16,1.67,6.38,1.99c13.51,1.99,27.42,1.16,40.6-2.41,2.85,3.11,7.35,4.39,11.54,3.94,4.19-.46,8.09-2.48,11.39-5.1-.32,2.25,1.4,4.4,3.48,5.33,2.08.94,4.43.94,6.71.93,22.61-.11,45.21-.22,67.82-.32,4.84-.02,9.71-.05,14.45-.99,1.24-.25,2.54-.6,3.4-1.53,1.34-1.45,1.07-3.87-.11-5.45-.44-.59-.97-1.08-1.56-1.5-6.88,2-14.46,1.28-21.61,0-2.44-.44-5.05-1.02-6.73-2.85-.29-.32-.53-.69-.72-1.09-.11.02-.21.04-.32.06-3.5-5.58-11.65-7.59-17.35-4.3,2.67-3.9,2.4-9.56-.63-13.18-3.03-3.63-8.55-4.9-12.86-2.97,8.1-6.74,11.45-18.27,9.25-28.49-1.04,7.03-3.49,13.89-7.85,19.46-5.16,6.58-13.22,11.15-21.58,10.92-1.13-8.6-6.7-16.5-14.42-20.45,4.19,3.2,4.3,10.16.71,14.02-3.59,3.86-9.85,4.53-14.59,2.23-4.74-2.3-7.96-7.1-9.21-12.22-1.85-7.61.76-14.02,4.73-20.16-1.57.62-3.17,1.46-4.39,2.08-16.18,8.21-14.82,32.66.55,41.14-1.65-.56-3.32-1.05-5.01-1.45-5.57,1.47-11.74,2.39-17.24,3.89-5.82,1.58-11.66,5.17-13.42,10.94-.89-.74-1.84-1.42-2.82-2.04h0c-2.21-.45-4.5-.85-6.7-.37v-.03Z"/>
              <path class="cls-40" d="M630.26,175.93c-15.37-8.48-16.73-32.93-.55-41.14,1.23-.62,2.83-1.46,4.39-2.08-8.09,3.93-12.29,13.28-12.43,22.28-.07,4.66.73,9.61,3.78,13.14,2.74,3.18,7,4.77,11.19,5.03,4.19.25,8.37-.7,12.39-1.92-4.75,4.48-13.05,7.85-18.77,4.7h0Z"/>
              <path class="cls-40" d="M700.55,183.56c2.67-3.9,2.4-9.56-.63-13.18-3.03-3.63-8.55-4.9-12.86-2.97,3.18-.59,6.22,2.41,6.85,5.58.64,3.17-.68,6.45-2.59,9.07-.8,1.09-1.72,2.12-2.89,2.78-1.78,1-3.93,1.05-5.97.95-4.67-.23-9.97-1.54-12.12-5.69-.41,3.21,1.79,6.31,4.61,7.88,2.83,1.56,6.17,1.87,9.4,1.94,3.05.06,6.15-.07,9.07-.96s5.39-2.87,7.12-5.39h.01Z"/>
              <path class="cls-40" d="M748.83,193.24c1.18,1.58,1.45,4,.11,5.45-.86.93-2.16,1.28-3.4,1.53-4.74.94-9.62.97-14.45.99-22.61.11-45.21.22-67.82.32-2.28,0-4.63,0-6.71-.93-2.08-.94-3.79-3.08-3.48-5.33,3.58,2.52,7.86,3.01,12.24,3.18,5.3.19,10.67.19,15.82-1.04,5.16-1.24,10.14-3.82,13.41-7.99.41,3.46-1.31,7.09-4.26,8.96,15.3-1.88,30.79-.12,46.2-.41,4.49-.09,10.67-.55,12.33-4.72h.01Z"/>
              <path class="cls-40" d="M653.08,195.28c-3.31,2.62-7.2,4.64-11.39,5.1s-8.69-.83-11.54-3.94c-13.18,3.57-27.09,4.4-40.6,2.41-2.22-.33-4.51-.76-6.38-1.99-1.88-1.24-3.26-3.48-2.85-5.69,1.8,3.49,6.53,4.23,10.44,4.57,4.5.38,9.07.05,13.47-.97-2.06-.43-3.98-1.52-5.4-3.08,12.05,2.95,25.04,1.87,36.44-3.03-.48,2.21.9,4.53,2.88,5.63,1.97,1.1,4.38,1.16,6.6.74,7.35-1.41,13.22-8.39,13.37-15.87,1.18,5.46-.65,12.64-5.03,16.11h0Z"/>
            </g>
          </g>
          <g class="cls-24">
            <path class="cls-18" d="M1646.09,416.3c7.22-2.01,15.19-.25,20.83,6.24,6.62-3.27,14.78-3.2,21.35.18,6.56,3.38,11.36,9.99,12.54,17.28,3.86-.51,7.84-1.02,11.61-.02s7.31,3.89,7.84,7.75c4.68.15,9.59,4.7,7.85,9.04-.99,2.46-3.71,3.82-6.33,4.19-2.63.37-5.3-.02-7.95.08-5.69.21-11.03,2.65-16.45,4.39-4.49,1.44-9.44,2.11-14.13,1.26-3.62-.65-7.18-2.54-9.05-5.72-5.11,4.37-12.18,5.57-18.89,5.88-5,.23-10.13.05-14.79-1.77-4.66-1.82-8.82-5.51-10.11-10.34-6.61,2.32-14.27,1.15-19.49-3.59-3.88-3.53-3.73-10.05-.15-13.78,2.82-2.95,7.39-3.18,11.47-3.08,2.84.06,5.85.25,8.18,1.88-.63-4.22,1.06-8.53,3.72-11.87,3.18-3.99,7.42-6.73,11.95-7.99h0Z"/>
            <path class="cls-30" d="M1646.09,416.3c-4.53,1.26-8.77,4-11.95,7.99-2.66,3.33-4.35,7.65-3.72,11.87.48,3.23,1.62,6.06,4.13,8.15,2.5,2.09,5.6,3.33,8.7,4.34-4.53-10.44-3.7-23.04,2.84-32.35h0Z"/>
            <g>
              <path class="cls-30" d="M1610.92,451.15c5.21,4.74,12.88,5.91,19.49,3.59,1.29,4.83,5.45,8.52,10.11,10.34s9.79,2,14.79,1.77c6.71-.31,13.78-1.52,18.89-5.88,1.87,3.17,5.43,5.06,9.05,5.72,4.69.85,9.63.18,14.13-1.26,5.43-1.74,10.76-4.18,16.45-4.39,2.65-.1,5.32.29,7.95-.08s5.35-1.73,6.33-4.19c1.74-4.35-3.17-8.89-7.85-9.04-.06-.45-.17-.88-.31-1.31-1.84-.19-3.73-.13-5.55.13-9.43,1.32-17.81,7.11-27.27,8.28-2.55.32-5.19.28-7.61-.56-2.12-.74-3.99-2.06-5.64-3.58-3.13-2.89-5.55-6.55-6.97-10.57,1.45,5.72-3.07,11.66-8.64,13.63-5.56,1.97-11.73.9-17.4-.76-3.57-1.04-7.53-2.77-8.6-6.33-4.17,3.47-10.89,3.96-14.92.33-4.57-4.13-2.26-8.18-.54-12.44-2.3.36-4.45,1.16-6.04,2.82-3.58,3.74-3.74,10.25.15,13.78h0Z"/>
              <path class="cls-40" d="M1674.19,460.96c-5.11,4.37-12.18,5.57-18.89,5.88-5,.23-10.13.05-14.79-1.77-4.66-1.82-8.82-5.51-10.11-10.34-6.61,2.32-14.27,1.15-19.49-3.59,6.82,2.65,14.23,3.28,21.31,1.45,2.71,5.34,8.49,8.72,14.43,9.42,5.94.71,11.98-1,17.26-3.82-.08,2.52-1.62,4.95-3.86,6.11,5,.05,9.75-.95,14.14-3.34h0Z"/>
              <path class="cls-40" d="M1728.11,456.76c-.99,2.46-3.71,3.82-6.33,4.19-2.63.37-5.3-.02-7.95.08-5.69.21-11.03,2.65-16.45,4.39-4.49,1.44-9.44,2.11-14.13,1.26-3.62-.65-7.18-2.54-9.05-5.72,5.69,2.19,12.59,2.11,18.43.36,3.32-.99,6.43-2.6,9.68-3.78,8.05-2.93,17.58-3.22,25.8-.77h0Z"/>
            </g>
          </g>
          <g class="cls-52">
            <g>
              <path class="cls-13" d="M1772.21,593.95c-67.76,23.13-129.75,8.1-107.32,29.95s254.94-8,223.01-23.37c-31.92-15.37-42.58-31.54-115.69-6.58h0Z"/>
              <g>
                <path class="cls-25" d="M1502.02,819.52s52.69-291.66,84.35-219.59c31.66,72.07,66.35,275.36,40.21,281.72s-155.36,9.39-124.56-62.14h0Z"/>
                <path class="cls-25" d="M1553.2,861.09s52.69-291.66,84.35-219.59c31.66,72.07,66.35,275.36,40.21,281.72s-155.36,9.39-124.56-62.14h0Z"/>
                <path class="cls-25" d="M104.89,819.52s52.69-291.66,84.35-219.59c31.66,72.07,66.35,275.36,40.21,281.72-26.14,6.36-155.36,9.39-124.56-62.14h0Z"/>
                <path class="cls-25" d="M171.99,737.5s52.69-291.66,84.35-219.59c31.66,72.07,66.35,275.36,40.21,281.72s-155.36,9.39-124.56-62.14h0Z"/>
                <path class="cls-25" d="M312.6,895.13s52.69-291.66,84.35-219.59c31.66,72.07,66.35,275.36,40.21,281.72-26.14,6.36-155.36,9.39-124.56-62.14h0Z"/>
                <path class="cls-25" d="M1556.45,862.05s-43.16-291.66-69.08-219.59c-25.93,72.07-54.34,275.36-32.93,281.72,21.41,6.36,127.24,9.39,102.02-62.14h-.01Z"/>
                <path class="cls-17" d="M1721.87,748.66s69.47-291.66,111.21-219.59c41.74,72.07,87.47,275.36,53.01,281.72s-204.82,9.39-164.22-62.14h0Z"/>
                <path class="cls-45" d="M-21.91,874.24s43.16-291.66,69.08-219.59c25.93,72.07,54.34,275.36,32.93,281.72s-127.24,9.39-102.02-62.14h0Z"/>
                <path class="cls-17" d="M35.65,810.52s52.69-291.66,84.35-219.59c31.66,72.07,66.35,275.36,40.21,281.72s-155.36,9.39-124.56-62.14h0Z"/>
                <path class="cls-17" d="M174.13,930.8s52.69-291.66,84.35-219.59c31.66,72.07,66.35,275.36,40.21,281.72s-155.36,9.39-124.56-62.14h0Z"/>
                <path class="cls-17" d="M261.43,853.56s52.69-291.66,84.35-219.59c31.66,72.07,66.35,275.36,40.21,281.72-26.14,6.36-155.36,9.39-124.56-62.14h0Z"/>
                <path class="cls-17" d="M381.84,788.67s52.69-291.66,84.35-219.59c31.66,72.07,66.35,275.36,40.21,281.72-26.14,6.36-155.36,9.39-124.56-62.14h0Z"/>
                <path class="cls-45" d="M489.43,834.42s46.22-194.07,74-146.12c27.77,47.96,58.21,183.23,35.27,187.46-22.93,4.24-136.29,6.25-109.27-41.35h0Z"/>
                <path class="cls-45" d="M671.14,881.57s-46.22-194.07-74-146.12c-27.77,47.96-58.21,183.23-35.27,187.46,22.93,4.24,136.29,6.25,109.27-41.35h0Z"/>
                <path class="cls-17" d="M1498.9,798.33s-52.69-291.66-84.35-219.59c-31.66,72.07-66.35,275.36-40.21,281.72s155.36,9.39,124.56-62.14h0Z"/>
                <path class="cls-17" d="M1429.66,848.9s-52.69-291.66-84.35-219.59c-31.66,72.07-66.35,275.36-40.21,281.72s155.36,9.39,124.56-62.14h0Z"/>
                <path class="cls-17" d="M1360.42,884.57s-52.69-291.66-84.35-219.59c-31.66,72.07-66.35,275.36-40.21,281.72s155.36,9.39,124.56-62.14h0Z"/>
                <path class="cls-45" d="M1329.81,898.09s53.67-287.23,85.92-216.25c32.25,70.98,67.58,271.18,40.96,277.44-26.63,6.27-158.25,9.25-126.88-61.19Z"/>
                <path class="cls-17" d="M1414.72,896.76s52.69-291.66,84.35-219.59c31.66,72.07,66.35,275.36,40.21,281.72s-155.36,9.39-124.56-62.14h0Z"/>
                <path class="cls-45" d="M1622.44,754.63s52.69-291.66,84.35-219.59c31.66,72.07,66.35,275.36,40.21,281.72s-155.36,9.39-124.56-62.14h0Z"/>
                <path class="cls-17" d="M1791.19,864.72s43.16-291.66,69.08-219.59c25.93,72.07,54.34,275.36,32.93,281.72-21.41,6.36-127.24,9.39-102.02-62.14h.01Z"/>
                <path class="cls-17" d="M1848.75,801s52.69-291.66,84.35-219.59c31.66,72.07,66.35,275.36,40.21,281.72-26.14,6.36-155.36,9.39-124.56-62.14h0Z"/>
                <path class="cls-17" d="M1917.99,885.61s52.69-291.66,84.35-219.59c31.66,72.07,66.35,275.36,40.21,281.72-26.14,6.36-155.36,9.39-124.56-62.14h0Z"/>
                <path class="cls-45" d="M913.59,878.15s-28.14-155.78-45.05-117.28c-16.91,38.49-35.44,147.07-21.48,150.47,13.96,3.4,82.98,5.01,66.53-33.19h0Z"/>
                <path class="cls-45" d="M876.43,857.33s-39.06-216.2-62.53-162.77c-23.47,53.42-49.18,204.12-29.81,208.83,19.38,4.72,115.17,6.96,92.34-46.06Z"/>
              </g>
              <path class="cls-53" d="M1236.55,884.84s337.26-208.35,826.86-176.93c375.57,24.11,243.63,453.79,243.63,453.79l-925.16-74.25-145.34-202.62h.01Z"/>
              <path class="cls-53" d="M-116.83,741.39s514.39-82.34,773.4,176.76c151.58,151.62-851.23,119.8-851.23,119.8,0,0-21.02-49.2,28.02-213.44,2.23-7.46,49.82-83.12,49.82-83.12h-.01Z"/>
              <path class="cls-48" d="M12.39,1026.93s241.25-228.44,876.53-218.7c580.86,8.9,950.92,558.98,950.92,558.98l-1809.17-1.39-18.27-338.89h0Z"/>
              <path class="cls-13" d="M-97.86,651.61s411.18-68.95,226.31-11.15c-30.65,9.58,258.2-1.58,179.81,17.29-95.75,23.05-188.37,0-343.22,30.81-203.06,40.4-160.74,14.61-160.08,8.69s97.18-45.64,97.18-45.64h0Z"/>
              <path class="cls-13" d="M326.34,690.06c-13.57,15.03,61.08-1.45,81.92,9.69,20.84,11.15-53.23-2.91-54.97,4.85-1.74,7.76,49.94,6.09,85.99,12.6,43.46,7.85,86.87,4.31,65.97-6.93-22.51-12.12-.24-16.3,36.84-15.82s-33.5-12.82-59.35-14.18c-56.01-2.96-142.83-5.24-156.4,9.79h0Z"/>
              <path class="cls-13" d="M1575.91,697.58c-11.97,26.51-252.02,12.53-198.75.81,53.27-11.72,213.61-33.71,198.75-.81Z"/>
              <ellipse class="cls-1" cx="827.19" cy="828.28" rx="11.89" ry="2.58" transform="translate(-88.06 98.49) rotate(-6.47)"/>
              <ellipse class="cls-1" cx="1114.65" cy="943.86" rx="11.89" ry="2.58" transform="translate(-99.26 131.61) rotate(-6.47)"/>
              <ellipse class="cls-1" cx="893.04" cy="932.86" rx="15.42" ry="5.15"/>
              <ellipse class="cls-1" cx="714.89" cy="855.99" rx="15.42" ry="5.15"/>
              <ellipse class="cls-1" cx="405.16" cy="827.83" rx="3.63" ry="15.42" transform="translate(-492.56 1036.55) rotate(-77.01)"/>
              <ellipse class="cls-1" cx="983.61" cy="870.79" rx="5.15" ry="23.79" transform="translate(-61.37 1666.89) rotate(-78.82)"/>
              <ellipse class="cls-1" cx="1415.73" cy="837.88" rx="10.27" ry="2.4" transform="translate(-187.34 468.41) rotate(-17.64)"/>
              <ellipse class="cls-1" cx="1634.11" cy="776.17" rx="23.79" ry="3.18" transform="translate(-130.38 377.01) rotate(-12.66)"/>
              <ellipse class="cls-1" cx="756.24" cy="917.6" rx="8.14" ry="1.8"/>
              <ellipse class="cls-1" cx="1006.82" cy="938.06" rx="1.8" ry="8.14" transform="translate(-117.59 1731.38) rotate(-78.18)"/>
              <ellipse class="cls-1" cx="277.81" cy="779.23" rx="8.2" ry="3.6"/>
              <ellipse class="cls-1" cx="1395.53" cy="866.29" rx="8.2" ry="3.6"/>
              <ellipse class="cls-1" cx="1714.4" cy="750.42" rx="8.2" ry="1.8" transform="translate(-154.74 657.7) rotate(-20.8)"/>
              <ellipse class="cls-1" cx="1705" cy="794.24" rx="8.2" ry="1.8"/>
              <path class="cls-1" d="M952.28,1019.19c4.22-1.65,8.22-1.48,8.95.37s-2.11,4.69-6.33,6.34-8.22,1.48-8.95-.37,2.11-4.69,6.33-6.34Z"/>
            </g>
          </g>
        </g>
        <g id="Layer_7" data-name="Layer 7">
          <g class="cls-29">
            <g>
              <path class="cls-33" d="M.98,798.88s44.46-78.17,87.32-63.33c42.87,14.84,49.22,36.14,49.22,36.14,0,0,27.79-102.28,66.68-93.54,38.9,8.73,52.39,138.13,52.39,138.13,0,0,82.56-70.82,104.79-27.52,0,0,3.97,45.49-34.14,95.01,0,0,104.79-72.26,138.13,20.63,0,0,34.62-74.92,112.41-26.5,0,0,9.84-124.01,90.82,3.48,0,0,109.55-25.72,41.28,46.85,0,0,117.49-13.47,88.91,92.09,0,0,64.3,19.06,34.93,88.91H-.24l1.22-310.35Z"/>
              <path class="cls-33" d="M1936.93,603.89s-96.13,8.11-78.16,104.14c0,0-138.31-49.61-73.49,109.55,0,0-96.03-37.21-126.62,35.81,0,0-26.45-74.92-107.56-68.04-89.8,7.62-81.9,92.99-81.9,92.99,0,0-54.27-25.65-67.1,21.08,0,0-21.71-58.97-59.21-25.86-37.5,33.12-23.68,34.67-23.68,34.67,0,0-134.2-105.17-181.57,53.71,0,0-141.11-16.49-130.26,135.83h932.19l-2.63-493.89h-.01Z"/>
              <g>
                <path class="cls-50" d="M1594.66,847.16c-2.61.7-4.93,2.94-5.04,5.64-.09,2.24,1.34,4.34,3.21,5.59s4.12,1.78,6.33,2.14c2.08.34,4.24.55,6.25-.05,2.02-.59,3.87-2.15,4.26-4.21.35-1.84-.52-3.75-1.85-5.07-3.07-3.08-8.91-5.17-13.17-4.03h.01Z"/>
                <path class="cls-8" d="M1609.68,856.26c.2-1.06,0-2.14-.47-3.12-.66,2.11-2.65,3.69-4.8,4.32-2.34.69-4.85.45-7.26.05-2.45-.4-4.94-.98-7.04-2.28.56,1.27,1.56,2.38,2.72,3.16,1.87,1.25,4.12,1.78,6.33,2.14,2.08.34,4.24.55,6.25-.05,2.02-.59,3.87-2.15,4.26-4.21h.01Z"/>
                <path class="cls-3" d="M1599.72,849.23c-1-.62-2.45-.52-3.56-.31-.59.11-1.16.3-1.7.55-.69.33-.98.67-1.48,1.2-.42.44.02,1.26.63.94.81-.44,1.84-.81,2.75-1,1-.21,1.92.08,2.9,0,.68-.05,1.18-.96.47-1.4v.02Z"/>
              </g>
              <g>
                <path class="cls-50" d="M178.9,811.88c-5.95,2.64-10.65,8.85-9.91,15.32.62,5.38,4.82,9.85,9.73,12.12s10.47,2.7,15.89,2.73c5.07.03,10.3-.28,14.88-2.45,4.59-2.17,8.43-6.56,8.59-11.63.14-4.52-2.65-8.74-6.29-11.4-8.47-6.19-23.16-8.99-32.88-4.68h-.01Z"/>
                <path class="cls-8" d="M218.07,827.96c.08-2.6-.81-5.1-2.28-7.26-.79,5.28-4.94,9.77-9.83,12.08-5.32,2.51-11.39,2.88-17.28,2.84-5.99-.04-12.13-.49-17.63-2.81,1.81,2.81,4.6,5.08,7.66,6.5,4.91,2.27,10.47,2.7,15.89,2.73,5.07.03,10.3-.28,14.88-2.45,4.59-2.17,8.43-6.56,8.59-11.63h0Z"/>
                <path class="cls-3" d="M191.73,814.94c-2.62-1.1-6.02-.33-8.61.59-1.36.48-2.65,1.14-3.84,1.95-1.52,1.04-2.07,1.96-3.09,3.42-.83,1.2.52,3.01,1.84,2,1.77-1.34,4.09-2.62,6.17-3.4,2.31-.87,4.6-.54,6.92-1.07,1.6-.37,2.46-2.72.6-3.5h0Z"/>
              </g>
              <path class="cls-39" d="M2016.06,696.49s-95.66-114.2-114.34,56.27c0,0-112.09-56.01-88.74,94.59,0,0-111.68-57.42-111.83,71.05,0,0-83.93-240.74-108.84,0,0,0-81.93-153.99-106.64,11.05-11.36,75.88-27.46,91.85-27.46,91.85,0,0-13.79-157.43-53.49-59.94,0,0-44.48-87.18-60.38-24.13,0,0-149.13-72.47-164.18,25.69-17.95,117.08,87.15,170.93,87.15,170.93l557.35,43.9,378.22-43.9-186.82-437.36h0Z"/>
              <path class="cls-39" d="M749.77,1213.32s131.28-254.42-26.15-154.3c0,0,66.45-185.63-61.7-72.76,0,0,19.81-133.99-77.62-34.36,0,0,0-163.75-42.04-82.02-30.6,59.49-50.59,114.42-50.59,114.42,0,0-15.06-110-42.53-120.65-60.89-23.61-150.51,109.75-150.51,109.75,0,0,122.48-254.9.1-152.36-122.38,102.54-117.38,69.85-117.38,69.85,0,0,59.22-277.62-52.48-27.24,0,0,23.35-104.68-63.83-50.4-87.18,54.29-174.36,252-174.36,252,0,0,70.05,116.76,77.84,119.87,7.78,3.11,456.23,54.49,456.23,54.49l196.06-18.68,128.97-7.6h0Z"/>
              <g>
                <path class="cls-21" d="M266.36,863.23c-2.17,3.03-2.68,7.47-.43,10.44,1.87,2.48,5.24,3.46,8.33,3.15s5.95-1.72,8.64-3.28c2.51-1.46,5-3.14,6.63-5.54,1.63-2.4,2.25-5.69.85-8.24-1.24-2.27-3.85-3.54-6.43-3.8-5.98-.59-14.05,2.3-17.59,7.26h0Z"/>
                <path class="cls-8" d="M290.38,859.77c-.72-1.31-1.88-2.28-3.24-2.92,1.15,2.83.41,6.26-1.34,8.82-1.9,2.79-4.79,4.74-7.7,6.43-2.97,1.73-6.13,3.29-9.52,3.74,1.71.86,3.75,1.17,5.67.98,3.09-.31,5.95-1.72,8.64-3.28,2.51-1.46,5-3.14,6.63-5.54,1.63-2.4,2.25-5.69.85-8.24h0Z"/>
                <path class="cls-3" d="M273.59,861.01c-1.61.22-3.07,1.59-4.08,2.8-.53.63-.98,1.33-1.33,2.08-.45.95-.45,1.57-.53,2.59-.06.84,1.13,1.33,1.49.45.48-1.18,1.26-2.48,2.06-3.47.89-1.1,2.12-1.6,3.1-2.54.68-.65.42-2.06-.72-1.9h0Z"/>
              </g>
              <g>
                <g>
                  <path class="cls-41" d="M463.18,902.62l132.24,161.52c2.71,1.71,6.39.76,7.96-2.04s1.16-6.37-.27-9.25c-1.43-2.87-3.53-5.46-5.8-7.73l-122.65-149.8c-.43.32-.84.67-1.27.98-2.03-1.93-5.52-2.06-7.7-.3-2.18,1.77-3.99,4.23-2.52,6.62h.01Z"/>
                  <path class="cls-8" d="M597.32,1045.11l-122.65-149.8c-.43.32-.84.67-1.27.98-1.5-1.42-3.78-1.86-5.75-1.29l124.02,151.48c2.57,2.64,4.98,5.61,6.7,8.84,1.62,3.04,2.31,6.67,1.18,9.53,1.56-.32,3-1.27,3.84-2.76,1.57-2.8,1.16-6.37-.27-9.25-1.43-2.87-3.53-5.46-5.8-7.73Z"/>
                </g>
                <path class="cls-46" d="M379.9,913.88c-15.03-9.15-27.87-23.67-30.34-41.09-1.89-13.35,2.77-27.47,12.24-37.06s23.53-14.44,36.9-12.72c1.25-13.57,9.55-26.3,21.47-32.92,11.91-6.62,27.11-6.94,39.29-.84,14.1,7.06,23.14,21.51,28.35,36.39,8.34,23.85,9.9,55.72-1.35,79.08-4.67,9.69-19.01,14.61-28.75,17.7-11.97,3.79-24.68,5.23-37.19,4.27-14.28-1.1-28.35-5.35-40.61-12.81h0Z"/>
                <path class="cls-8" d="M459.46,789.25c-6.68-3.34-14.25-4.75-21.7-4.25,1.13.44,2.25.92,3.34,1.46,14.1,7.06,23.14,21.51,28.35,36.39,8.34,23.85,9.9,55.72-1.35,79.08-4.67,9.69-19.01,14.61-28.75,17.7-11.31,3.58-23.28,5.04-35.13,4.38,5.34,1.36,10.8,2.26,16.29,2.68,12.51.96,25.23-.48,37.19-4.27,9.74-3.08,24.08-8.01,28.75-17.7,11.26-23.36,9.69-55.23,1.35-79.08-5.21-14.89-14.25-29.33-28.35-36.39h.01Z"/>
                <path class="cls-3" d="M370.83,844.95c-8.15,9.39-6.93,22.33-.92,32.52,5.36,9.09,16.05,20.37,27.59,18.8,2.39-.33,3.33-3.22,1.92-5.03-4.79-6.12-12.3-9.15-17.08-15.45-5.54-7.31-8.18-16.48-2.68-24.58,3.97-5.86-4.34-11.42-8.83-6.24v-.02Z"/>
              </g>
              <path class="cls-22" d="M27.44,952.98c.26-4.84-33.02-269.85,93.41,6.52,0,0,70.96-268.95,68.5,83.77,0,0,99.7-419.13,95.33-56.04,0,0,89.19-253.75,29.4,30.36-3.58,17,151.16-215.34,106.97,29.07,0,0,30.9-116.29,56.3-62.54,40.48,85.62,53.71,189.48,53.71,189.48h-46.72l-579.27-12.65-60.38-131.19,182.75-76.77h0Z"/>
              <path class="cls-22" d="M514.17,1198.72s-51.37-333.15,60.71-141.66c0,0-14.06-200.26,28.94-119.87,0,0,28.6-120.57,52.76-19.03,24.16,101.54,16.04,68.85,16.04,68.85,0,0,98.34-141.15,55.76,22.76,0,0,99.87-69.99,43.37,48.39s-252.91,157.69-252.91,157.69l-4.67-17.12h0Z"/>
              <g>
                <path class="cls-50" d="M1804.56,884.95c-4.3,1.02-8.22,4.59-8.52,9.01-.25,3.67,2,7.17,5,9.3s6.66,3.1,10.28,3.79c3.38.65,6.91,1.09,10.25.21,3.33-.88,6.44-3.34,7.18-6.71.65-3-.69-6.16-2.79-8.4-4.89-5.19-14.36-8.88-21.39-7.2h-.01Z"/>
                <path class="cls-8" d="M1828.74,900.55c.38-1.73.09-3.51-.62-5.13-1.18,3.43-4.51,5.92-8.06,6.85-3.87,1.02-7.97.51-11.9-.24-4-.77-8.04-1.83-11.43-4.06.86,2.1,2.44,3.97,4.31,5.29,3,2.13,6.66,3.1,10.28,3.79,3.38.65,6.91,1.09,10.25.21,3.33-.88,6.44-3.34,7.18-6.71h-.01Z"/>
                <path class="cls-3" d="M1812.75,888.59c-1.61-1.06-3.98-.97-5.82-.67-.97.15-1.91.43-2.81.83-1.14.51-1.63,1.05-2.49,1.9-.7.7-.03,2.07.98,1.56,1.35-.68,3.06-1.24,4.54-1.51,1.65-.29,3.14.21,4.75.14,1.12-.05,1.98-1.51.83-2.27l.02.02Z"/>
              </g>
              <g>
                <g>
                  <path class="cls-43" d="M1516.81,952.58c-29.51,0-53.44,22.9-53.44,51.15s23.92,51.15,53.44,51.15,53.44-22.9,53.44-51.15-23.92-51.15-53.44-51.15h0ZM1516.81,1036.95c-19.17,0-34.71-14.87-34.71-33.22s15.54-33.22,34.71-33.22,34.71,14.87,34.71,33.22-15.54,33.22-34.71,33.22Z"/>
                  <g>
                    <path class="cls-31" d="M1538.38,1029.48c-3.46,2.72-7.48,4.8-11.87,6.08l9.22,15.9c4.28-1.59,8.29-3.7,11.96-6.23l-9.31-15.74h0Z"/>
                    <path class="cls-31" d="M1548.47,991.11c1.69,3.91,2.62,8.18,2.62,12.67,0,.6-.02,1.2-.05,1.79l18.76-2.56c-.08-5.1-.93-10.01-2.45-14.64l-18.88,2.74h0Z"/>
                    <path class="cls-31" d="M1545.04,960.62l-12.02,14c4.43,2.32,8.28,5.54,11.27,9.4l12.23-14c-3.34-3.63-7.2-6.8-11.47-9.4h-.01Z"/>
                    <path class="cls-31" d="M1474.49,972.05l12.66,13.84c2.73-4.08,6.36-7.54,10.62-10.14l-12.3-13.67c-4.14,2.81-7.84,6.18-10.98,9.98h0Z"/>
                    <path class="cls-31" d="M1481.68,1003.78c0-3.35.52-6.58,1.49-9.63l-18.54-3.1c-1.09,4.07-1.67,8.34-1.67,12.73,0,.68.03,1.36.05,2.04l19.07,3.03c-.26-1.65-.4-3.34-.4-5.06h0Z"/>
                    <path class="cls-31" d="M1491.89,1027.32c-3.59-3.42-6.39-7.58-8.15-12.23l-15.91,10.06c2.16,4.49,4.98,8.62,8.34,12.3l15.72-10.13h0Z"/>
                    <path class="cls-31" d="M1511.71,1054.72l3.64-17.74c-5.12-.14-9.95-1.34-14.28-3.38l-3.84,17.93c4.56,1.68,9.42,2.77,14.48,3.19Z"/>
                    <path class="cls-31" d="M1509.34,953.1l-.76,18.32c2.51-.55,5.12-.86,7.81-.86,2.36,0,4.67.23,6.9.66l.9-18.04c-2.55-.36-5.15-.55-7.8-.55-2.39,0-4.74.17-7.05.46h0Z"/>
                    <path class="cls-31" d="M1566.46,1021.67l-16.27-10.36c-1.07,4.44-3.07,8.54-5.8,12.1l15.5,10.06c2.69-3.61,4.92-7.57,6.57-11.8h0Z"/>
                  </g>
                </g>
                <g>
                  <path class="cls-43" d="M1516.81,970c-19.46,0-35.24,15.1-35.24,33.73s15.78,33.73,35.24,33.73,35.24-15.1,35.24-33.73-15.78-33.73-35.24-33.73ZM1516.81,1022.62c-10.9,0-19.74-8.46-19.74-18.9s8.84-18.9,19.74-18.9,19.74,8.46,19.74,18.9-8.84,18.9-19.74,18.9Z"/>
                  <g class="cls-47">
                    <g>
                      <polygon class="cls-31" points="1493.82 968.68 1506.24 993 1514.68 990.53 1502.91 963.31 1493.82 968.68"/>
                      <polygon class="cls-31" points="1518.17 964.59 1515.47 991.76 1523.9 994.25 1528.72 964.98 1518.17 964.59"/>
                      <polygon class="cls-31" points="1542.03 972.68 1524.06 993.24 1529.48 1000.16 1550.4 979.13 1542.03 972.68"/>
                      <polygon class="cls-31" points="1555.98 995.56 1528.95 999.43 1528.55 1008.21 1558.12 1005.9 1555.98 995.56"/>
                      <polygon class="cls-31" points="1533.71 1040.56 1524.43 1014.87 1515.75 1016.26 1524.02 1044.75 1533.71 1040.56"/>
                      <polygon class="cls-31" points="1504.14 1040.46 1515.21 1015.49 1507.98 1010.49 1494.24 1036.78 1504.14 1040.46"/>
                      <polygon class="cls-31" points="1476.88 993.23 1502.44 1002.86 1507.02 995.35 1479.99 983.14 1476.88 993.23"/>
                      <polygon class="cls-31" points="1482 1023.51 1505.76 1010.05 1502.93 1001.73 1476.24 1014.66 1482 1023.51"/>
                      <polygon class="cls-31" points="1552.44 1020.9 1529.16 1006.63 1523.25 1013.14 1547.49 1030.23 1552.44 1020.9"/>
                    </g>
                  </g>
                </g>
                <g>
                  <path class="cls-43" d="M1536.95,1004.1c0,10.65-9.02,19.28-20.14,19.28s-20.14-8.63-20.14-19.28,9.02-19.28,20.14-19.28,20.14,8.63,20.14,19.28Z"/>
                  <path class="cls-31" d="M1516.8,1004.1s-5.17-10.6-.82-19.26c0,0,5.78-.66,9.97,2.08,0,0-7.66,7.29-9.15,17.18Z"/>
                  <path class="cls-31" d="M1516.81,1004.18s7.63-9.49,17.3-9.93c0,0,3.16,5.4,2.82,10.41,0,0-10.76-4.02-20.12-.48Z"/>
                  <path class="cls-31" d="M1516.8,1004.1s13-.79,18.77,7c0,0-1.38,6.23-6.87,8.56,0,0-3.74-9.77-11.9-15.56Z"/>
                  <path class="cls-31" d="M1516.8,1004.1s-5.21,11.07-14.65,13.23c0,0-4.04-2.79-5.09-9.36,0,0,11.16,1.28,19.74-3.87Z"/>
                  <path class="cls-31" d="M1516.81,1004.18s-12.38,1.48-19.45-5.14c0,0,.82-4.98,5.82-9.13,0,0,4.57,10.04,13.63,14.28h0Z"/>
                  <path class="cls-31" d="M1516.8,1004.1s6.06,10.31,2.4,19.28c0,0-5.45,1.05-9.85-1.36,0,0,6.73-7.94,7.45-17.92h0Z"/>
                </g>
                <path class="cls-14" d="M1474.15,978.87s-22.62,30.74,8.67,59.67c32.29,29.85,78.83,1.41,79.42-14.93.59-16.33-51.86,7.94-61.54-8.52-9.68-16.47-18.75-53.8-26.55-36.21h0Z"/>
                <path class="cls-16" d="M1553.54,976.9s-7.18-23.15-40.05-19.36c-32.88,3.79-.39,24.54,8.42,28.12,16.28,6.61,38.08,9.81,31.63-8.76Z"/>
                <path class="cls-10" d="M1465.59,1005.26s8.59-37.66,21.9-28.06c65.89,47.53,74.86,63.32,45.84,69.89-29.02,6.56-73.01-7.38-67.73-41.82h-.01Z"/>
                <path class="cls-2" d="M1470.03,986.29s-13.95,28.21,11.12,52.43,66.96,7.62,78.4-7.66c11.44-15.28-18.86,24.23-55.21,16.13-51.8-11.54-27.5-74.79-34.31-60.9h0Z"/>
                <path class="cls-38" d="M1501.72,960.75s18.67-4.96,37.52,3.9c13.24,6.22,6.79,6.45-6.22,2.1-13.01-4.36-47.39-3.54-31.3-5.99h0Z"/>
                <path class="cls-38" d="M1559.83,979.38s-3.82-8.86-8.62-6.73c-4.8,2.12,12.77,14.91,8.62,6.73Z"/>
              </g>
              <path class="cls-22" d="M1548.23,1059.38s19.83-92.01,72.06-38.86c0,0-16-104.07,22.27-107.18,14.96-1.22,80.9,64.87,80.9,64.87,0,0-24.24-197.85,39.82-59.81,0,0,19.87-53.38,38.7-39.22,37.87,28.47,37.87,142.12,37.87,142.12,0,0,16.39-211.41,68.7-198.03,52.32,13.39,83.87,99.26,67.16,117.57,0,0,105.63,1.6,74.16,66.57-31.47,64.96-77.48,78.14-77.48,78.14,0,0-36.64,12.81-111.31,22.09-74.68,9.28-313.43,76.1-312.84-48.26h0Z"/>
              <path class="cls-22" d="M1146.08,1159.43s67.77-221.51,119.12-129.72c0,0,23.04-128.69,83.69-89.39,37.5,24.3,47.31,124.68,47.31,124.68,0,0,30.53-154.99,86.41-32.85,0,0,43.53-71.56,55.39-50.15,35.59,64.22,17.93,185.71-6.4,177.77l-290.69,34.52-94.82-34.85h-.01Z"/>
            </g>
          </g>
        </g>
        <g id="Layer_1-2" data-name="Layer 1-2">
          <g>
            <path class="cls-35" d="M1521.34,454.77c-3.85,6.02-1.63,13.05,3.51,17.6,7.33,6.49,8.49.44,11.84-.57,2.89-.87-3.23-5.36-1.45-8.15,1.77-2.76,9.45-1.4,9.05-4.35-.47-3.5,2.49-6.64-5.5-8.74-6.64-1.74-13.6-1.82-17.45,4.21h0Z"/>
            <path class="cls-49" d="M1528.99,452.56s11.01-1.7,11.64,1.07c.63,2.77-7.86,6.53-7.56,9.33.29,2.8,1.57,3.3.86,4.92-.72,1.62-2.56,2.76-4.05,4.33-1.49,1.57-7.38-7.48-7.2-9.76.18-2.29-2.3-9.47,6.32-9.88h0Z"/>
            <path class="cls-31" d="M1522.39,455.13c-7.49,11.71-22.99,15.18-34.61,7.75-11.63-7.44-14.99-22.96-7.5-34.67s22.98-15.18,34.61-7.75,14.99,22.96,7.5,34.67Z"/>
            <path class="cls-35" d="M1481.33,428.56c3.85-6.02,1.63-13.05-3.51-17.61-7.32-6.49-8.49-.44-11.84.57-2.89.87,2.76,7.16-.55,7.19-7.08.05-7.45,2.36-7.06,5.32.47,3.5-2.49,6.64,5.5,8.74,6.64,1.74,13.6,1.82,17.45-4.21h.01Z"/>
            <path class="cls-44" d="M1517.08,451.59c-6.76,2.95-9.74-3.85-13.07-11.5-3.34-7.64-5.77-13.23.99-16.19,6.76-2.95,14.94.85,18.28,8.5,3.34,7.64.56,16.24-6.2,19.19h0Z"/>
            <path class="cls-5" d="M1499.2,417.61s-11.19,5.83-12.61,15.39c-1.42,9.56,13.04,12.99,9.64,16.63s11.87,11.11,17.4,11.12-14.55,10.47-27.93-1.67c-15.94-14.46-3.01-40.71,13.49-41.48h.01Z"/>
            <path class="cls-26" d="M1522.81,440.95s3.08-7.83-3.81-12.07c-6.89-4.25,3.19,17.37,3.81,12.07Z"/>
            <path class="cls-49" d="M1480.37,416.71s2.89,4.71-.09,11.5c-1.07,2.44-11.94,4.14-14.44,3.02-2.51-1.12-.2-3.97,1.25-6.24s4.56-.63,5.55-1.67-3.94-4.35-2.56-4.27c1.39.09,6.33,3.73,6.81,1.79.48-1.93,2.27-8.58,3.49-4.14h-.01Z"/>
            <path class="cls-5" d="M1524.09,452.46s6.43-3.32,8.93-.69c1.44,1.52-4.98,5.28-5.11,6.24-.14.96,3.64,2.4,1.72,4.62-1.93,2.22-4.89,3.85-3.94,4.61.95.77,1.35,3.1-.29,2.06-1.64-1.05-9.48-11.82-1.3-16.84h-.01Z"/>
          </g>
          <g>
            <path class="cls-27" d="M1755.19,239.68c0,2.79,2.55,4.63,5.6,5.05,4.36.59,3.33-1.64,4.36-2.67.89-.89-2.79-1.77-1.53-2.48,2.67-1.51,2.26-2.34,1.39-3.23-1.03-1.05-.66-2.71-4.21-1.72-2.95.82-5.6,2.26-5.6,5.05h-.01Z"/>
            <path class="cls-34" d="M1757.3,243.38s-.15-3.95-.9-6.54c0,0,1.52-1.24,2.26-1.46,0,0,.08,5.85.53,8.99,0,0-1.02-.11-1.89-.99Z"/>
            <path class="cls-34" d="M1760.79,244.73s.3-7.43,0-10.1c0,0,2.48-.67,2.39-.16-.79,4.52-.6,6.12-.28,10.36,0,0-1.25.2-2.11-.1h0Z"/>
            <path class="cls-27" d="M1756.27,239.96c0,4.89-5.28,8.85-11.78,8.85s-11.78-3.96-11.78-8.85,5.28-8.85,11.78-8.85,11.78,3.96,11.78,8.85Z"/>
            <path class="cls-27" d="M1733.92,240.19c0-2.79-2.55-4.63-5.6-5.05-4.36-.59-3.33,1.64-4.36,2.67-.89.89,2.79,1.77,1.53,2.48-2.67,1.51-2.26,2.34-1.39,3.23,1.03,1.05.66,2.71,4.21,1.72,2.94-.82,5.6-2.26,5.6-5.05h.01Z"/>
            <path class="cls-34" d="M1737.36,232.92l.95,14.59s-2.04-.76-3.14-2.12l-.23-10.59s1.17-1.33,2.42-1.87h0Z"/>
            <path class="cls-34" d="M1740.43,231.68l.55,16.74s2.25.55,3.5.4v-17.71s-2.15-.07-4.06.57h.01Z"/>
            <path class="cls-34" d="M1747.33,231.37l.62,17.06s1.94-.47,2.42-.79v-15.35s-2.32-.76-3.03-.92h-.01Z"/>
            <path class="cls-34" d="M1752.56,233.51v12.9s1.58-1.02,2.42-2.41l-.41-8.63s-.66-1.03-2.01-1.87h0Z"/>
            <path class="cls-34" d="M1731.8,236.49s.15,3.95.9,6.54c0,0-1.52,1.24-2.26,1.46,0,0-.08-5.85-.53-8.99,0,0,1.02.11,1.89.99Z"/>
            <path class="cls-34" d="M1728.32,235.14s-.3,7.43,0,10.1c0,0-2.48.67-2.39.16.79-4.52.6-6.12.28-10.36,0,0,.93-.36,2.11.1h0Z"/>
            <path class="cls-15" d="M1733.88,238.05s2.8,6.38,6.99,6.78c4.18.41,14.03-3.43,14.32-3.33.29.1-2.88,7.58-11.02,6.93-11.46-.93-10.69-10.93-10.28-10.38h0Z"/>
            <path class="cls-4" d="M1754.18,236.92s-3.72-5.6-9.83-4.87c-6.11.74-3.06,5.54,2.64,7.01,5.7,1.48,9.16,1.5,7.19-2.15h0Z"/>
            <path class="cls-15" d="M1755.75,238.66s3.57-1.89,4.36-1.87-1.36,2.61-.92,3.09,3.67,1.08,3.47,1.48c-.2.41-3.07,1.72-2.87,1.89s2.94.88,1.62,1.12c-1.32.24-4.74-1.91-5.14-2.86s-.83-2.5-.52-2.85h0Z"/>
            <path class="cls-4" d="M1758.06,236.39s4.2-1.56,4.61-1.45c.41.1,2.21,2.46,1.89,2.71-.32.24-2.14-1.3-3.23-1.36s-4.05.39-3.27.1h0Z"/>
            <path class="cls-15" d="M1732.69,238.66s-3.57-1.89-4.36-1.87,1.36,2.61.92,3.09-3.67,1.08-3.47,1.48c.2.41,3.07,1.72,2.87,1.89s-2.94.88-1.62,1.12c1.32.24,4.74-1.91,5.14-2.86s.83-2.5.52-2.85h0Z"/>
            <path class="cls-4" d="M1730.68,236.39s-4.2-1.56-4.61-1.45c-.41.1-2.21,2.46-1.89,2.71.32.24,2.14-1.3,3.23-1.36s4.05.39,3.27.1h0Z"/>
            <path class="cls-26" d="M1758.67,235.83s3.9-1.14,4.51-.89-2.08,1.03-3.11,1.06c-1.03.04-2.33.09-1.4-.17Z"/>
            <path class="cls-26" d="M1727.82,236.19s4.01.64,4.46,1.13-2.32.04-3.26-.37c-.94-.41-2.14-.92-1.2-.75h0Z"/>
            <path class="cls-12" d="M1733.69,237.18s4.75-4.8,7.31-4.27c2.55.53,9.95,13.33,4.76,14.88-5.19,1.56-15.48-5.8-12.07-10.62h0Z"/>
            <path class="cls-26" d="M1754.26,236s-4.8-3.85-8.5-4.01c-3.7-.16-6.48.49-5.88.93.6.44,4.57.52,5.88.74,3.89.67,10.2,4.82,8.5,2.34Z"/>
            <path class="cls-26" d="M1736.62,234.37s2.25-2.03,2.49-1.16-3.23,2.62-2.49,1.16Z"/>
          </g>
          <g>
            <path class="cls-21" d="M1658.98,987.68c-2.17,3.03-2.68,7.47-.43,10.44,1.87,2.48,5.24,3.46,8.33,3.15s5.95-1.72,8.64-3.28c2.51-1.46,5-3.14,6.63-5.54,1.63-2.4,2.25-5.69.85-8.24-1.24-2.27-3.85-3.54-6.43-3.8-5.98-.59-14.05,2.3-17.59,7.26h0Z"/>
            <path class="cls-8" d="M1683,984.23c-.72-1.31-1.88-2.28-3.24-2.92,1.15,2.83.41,6.26-1.34,8.82-1.9,2.79-4.79,4.74-7.7,6.43-2.97,1.73-6.13,3.29-9.52,3.74,1.71.86,3.75,1.17,5.67.98,3.09-.31,5.95-1.72,8.64-3.28,2.51-1.46,5-3.14,6.63-5.54,1.63-2.4,2.25-5.69.85-8.24h0Z"/>
            <path class="cls-3" d="M1666.2,985.46c-1.61.22-3.07,1.59-4.08,2.8-.53.63-.98,1.33-1.33,2.08-.45.95-.45,1.57-.53,2.59-.06.84,1.13,1.33,1.49.45.48-1.18,1.26-2.48,2.06-3.47.89-1.1,2.12-1.6,3.1-2.54.68-.65.42-2.06-.72-1.9h0Z"/>
          </g>
          <g>
            <path class="cls-21" d="M410.89,1019.23c-2.17,3.03-2.68,7.47-.43,10.44,1.87,2.48,5.24,3.46,8.33,3.15,3.09-.31,5.95-1.72,8.64-3.28,2.51-1.46,5-3.14,6.63-5.54,1.63-2.4,2.25-5.69.85-8.24-1.24-2.27-3.85-3.54-6.43-3.8-5.98-.59-14.05,2.3-17.59,7.26h0Z"/>
            <path class="cls-8" d="M434.91,1015.77c-.72-1.31-1.88-2.28-3.24-2.92,1.15,2.83.41,6.26-1.34,8.82-1.9,2.79-4.79,4.74-7.7,6.43-2.97,1.73-6.13,3.29-9.52,3.74,1.71.86,3.75,1.17,5.67.98,3.09-.31,5.95-1.72,8.64-3.28,2.51-1.46,5-3.14,6.63-5.54s2.25-5.69.85-8.24h.01Z"/>
            <path class="cls-3" d="M418.11,1017c-1.61.22-3.07,1.59-4.08,2.8-.53.63-.98,1.33-1.33,2.08-.45.95-.45,1.57-.53,2.59-.06.84,1.13,1.33,1.49.45.48-1.18,1.26-2.48,2.06-3.47.89-1.1,2.12-1.6,3.1-2.54.68-.65.42-2.06-.72-1.9h.01Z"/>
          </g>
          <g>
            <path class="cls-21" d="M1358.27,993.19c-3.73-.19-7.73,1.78-9.02,5.28-1.07,2.91-.07,6.28,1.85,8.71,1.93,2.43,4.66,4.08,7.43,5.49,2.59,1.32,5.34,2.51,8.25,2.58,2.9.07,6-1.19,7.39-3.74,1.24-2.27.9-5.15-.28-7.46-2.74-5.35-9.53-10.57-15.62-10.87h0Z"/>
            <path class="cls-8" d="M1374.17,1011.53c.71-1.31.9-2.82.71-4.3-1.76,2.5-5.05,3.73-8.15,3.65-3.37-.09-6.57-1.46-9.58-3-3.06-1.56-6.08-3.38-8.3-5.98.2,1.91,1.04,3.79,2.24,5.3,1.93,2.43,4.66,4.08,7.43,5.49,2.59,1.32,5.34,2.51,8.25,2.58,2.9.07,6-1.19,7.39-3.74h.01Z"/>
            <path class="cls-3" d="M1364.05,998.07c-1.05-1.24-3-1.72-4.56-1.92-.82-.1-1.65-.1-2.47.01-1.04.14-1.57.47-2.46.96-.74.4-.51,1.67.43,1.5,1.25-.23,2.77-.29,4.03-.15,1.41.15,2.49.91,3.82,1.24.92.22,1.96-.76,1.21-1.64Z"/>
          </g>
          <g>
            <path class="cls-50" d="M73.01,1001.86c-1.94,6.21-.37,13.85,4.98,17.55,4.45,3.08,10.58,2.87,15.53.68s8.93-6.1,12.52-10.15c3.37-3.79,6.58-7.93,7.97-12.8,1.4-4.88.62-10.66-3.08-14.12-3.3-3.08-8.31-3.77-12.72-2.79-10.24,2.28-22.02,11.48-25.2,21.63Z"/>
            <path class="cls-8" d="M110.94,983.01c-1.9-1.78-4.37-2.75-6.96-3.08,3.45,4.07,4.09,10.16,2.6,15.36-1.62,5.66-5.35,10.46-9.25,14.87-3.98,4.48-8.36,8.8-13.74,11.4,3.31.49,6.85-.11,9.94-1.47,4.95-2.19,8.93-6.1,12.52-10.15,3.37-3.79,6.58-7.93,7.97-12.8,1.4-4.88.62-10.66-3.08-14.12h0Z"/>
            <path class="cls-3" d="M83.77,994.23c-2.55,1.24-4.22,4.31-5.23,6.86-.53,1.34-.89,2.74-1.06,4.17-.22,1.83.11,2.85.54,4.58.36,1.42,2.6,1.59,2.72-.07.16-2.21.73-4.8,1.51-6.88.87-2.31,2.63-3.81,3.76-5.91.78-1.45-.42-3.64-2.24-2.76h0Z"/>
          </g>
          <g>
            <path class="cls-50" d="M254.07,950.95c-2.88,1.27-5.15,4.28-4.79,7.4.3,2.6,2.33,4.76,4.7,5.86,2.37,1.1,5.06,1.3,7.68,1.32,2.45.01,4.98-.14,7.19-1.18,2.22-1.05,4.07-3.17,4.15-5.62.07-2.18-1.28-4.22-3.04-5.51-4.09-2.99-11.19-4.34-15.89-2.26h0Z"/>
            <path class="cls-8" d="M273,958.73c.04-1.26-.39-2.46-1.1-3.51-.38,2.55-2.39,4.72-4.75,5.84-2.57,1.21-5.5,1.39-8.35,1.37-2.89-.02-5.86-.23-8.52-1.36.88,1.36,2.22,2.46,3.7,3.14,2.37,1.1,5.06,1.3,7.68,1.32,2.45.01,4.98-.14,7.19-1.18,2.22-1.05,4.07-3.17,4.15-5.62h0Z"/>
            <path class="cls-3" d="M260.27,952.43c-1.26-.53-2.91-.16-4.16.29-.66.23-1.28.55-1.85.94-.73.5-1,.95-1.49,1.65-.4.58.25,1.45.89.97.85-.65,1.98-1.27,2.98-1.64,1.12-.42,2.22-.26,3.34-.52.78-.18,1.19-1.31.29-1.69h0Z"/>
          </g>
          <g>
            <path class="cls-50" d="M629.4,983.7c-4.02,1.78-7.19,5.97-6.69,10.34.42,3.63,3.25,6.65,6.57,8.18,3.32,1.54,7.07,1.82,10.73,1.84,3.42.02,6.95-.19,10.05-1.65s5.69-4.43,5.8-7.85c.1-3.05-1.79-5.9-4.25-7.7-5.72-4.18-15.63-6.07-22.2-3.16h0Z"/>
            <path class="cls-8" d="M655.85,994.56c.06-1.76-.55-3.44-1.54-4.9-.53,3.56-3.34,6.6-6.64,8.16-3.59,1.7-7.69,1.94-11.67,1.92-4.04-.02-8.19-.33-11.9-1.9,1.22,1.9,3.1,3.43,5.17,4.39,3.32,1.54,7.07,1.82,10.73,1.84,3.42.02,6.95-.19,10.05-1.65s5.69-4.43,5.8-7.85h0Z"/>
            <path class="cls-3" d="M638.06,985.76c-1.77-.74-4.07-.22-5.81.4-.92.33-1.79.77-2.59,1.32-1.02.7-1.4,1.32-2.08,2.31-.56.81.35,2.03,1.24,1.35,1.19-.91,2.76-1.77,4.17-2.29,1.56-.59,3.11-.36,4.67-.72,1.08-.25,1.66-1.84.4-2.36h0Z"/>
          </g>
          <g>
            <path class="cls-50" d="M1289.04,1027.46c-4.02,1.78-7.19,5.97-6.69,10.34.42,3.63,3.25,6.65,6.57,8.18,3.32,1.54,7.07,1.82,10.73,1.84,3.42.02,6.95-.19,10.05-1.65,3.1-1.46,5.69-4.43,5.8-7.85.1-3.05-1.79-5.9-4.25-7.7-5.72-4.18-15.63-6.07-22.2-3.16h-.01Z"/>
            <path class="cls-8" d="M1315.48,1038.32c.06-1.76-.55-3.44-1.54-4.9-.53,3.56-3.34,6.6-6.64,8.16-3.59,1.7-7.69,1.94-11.67,1.92-4.04-.02-8.19-.33-11.9-1.9,1.22,1.9,3.1,3.43,5.17,4.39,3.32,1.54,7.07,1.82,10.73,1.84,3.42.02,6.95-.19,10.05-1.65,3.1-1.46,5.69-4.43,5.8-7.85h0Z"/>
            <path class="cls-3" d="M1297.7,1029.53c-1.77-.74-4.07-.22-5.81.4-.92.33-1.79.77-2.59,1.32-1.02.7-1.4,1.32-2.08,2.31-.56.81.35,2.03,1.24,1.35,1.19-.91,2.76-1.77,4.17-2.29,1.56-.59,3.11-.36,4.67-.72,1.08-.25,1.66-1.84.4-2.36h0Z"/>
          </g>
          <g>
            <path class="cls-50" d="M1533.21,902.9c-3.24,3.38-4.66,8.81-2.4,12.9,1.89,3.41,5.9,5.23,9.79,5.4,3.89.17,7.7-1.07,11.32-2.54,3.38-1.37,6.77-3.01,9.23-5.71s3.81-6.67,2.53-10.09c-1.14-3.04-4.15-5.09-7.31-5.86-7.33-1.8-17.87.36-23.16,5.89h0Z"/>
            <path class="cls-8" d="M1563.68,902.87c-.66-1.75-1.94-3.17-3.5-4.21.92,3.73-.61,7.85-3.23,10.73-2.85,3.13-6.79,5.04-10.72,6.63-4,1.62-8.2,3-12.5,2.96,1.98,1.37,4.45,2.12,6.88,2.23,3.89.17,7.7-1.07,11.32-2.54,3.38-1.37,6.77-3.01,9.23-5.71s3.81-6.67,2.53-10.09h-.01Z"/>
            <path class="cls-3" d="M1542.58,901.42c-2.04-.02-4.1,1.43-5.56,2.75-.77.69-1.45,1.48-2.02,2.35-.72,1.11-.84,1.87-1.11,3.12-.22,1.03,1.17,1.86,1.77.83.81-1.38,2-2.86,3.17-3.95,1.3-1.21,2.92-1.62,4.31-2.61.97-.69.89-2.48-.56-2.49Z"/>
          </g>
          <g>
            <path class="cls-50" d="M1766.16,978.21c-7.04,7.36-10.14,19.15-5.21,28.06,4.1,7.41,12.83,11.38,21.3,11.74,8.46.36,16.75-2.34,24.61-5.52,7.36-2.98,14.73-6.54,20.07-12.41,5.34-5.86,8.28-14.51,5.49-21.94-2.48-6.62-9.03-11.06-15.9-12.75-15.94-3.91-38.86.79-50.36,12.81h0Z"/>
            <path class="cls-8" d="M1832.42,978.15c-1.43-3.81-4.21-6.89-7.62-9.15,2,8.1-1.33,17.08-7.02,23.33-6.21,6.81-14.77,10.95-23.31,14.41-8.69,3.52-17.84,6.52-27.18,6.43,4.3,2.99,9.68,4.62,14.96,4.84,8.46.36,16.75-2.34,24.61-5.52,7.36-2.98,14.73-6.54,20.07-12.41,5.34-5.86,8.28-14.51,5.49-21.94h0Z"/>
            <path class="cls-3" d="M1786.55,975c-4.44-.03-8.91,3.11-12.1,5.98-1.67,1.51-3.15,3.23-4.39,5.11-1.57,2.41-1.83,4.07-2.42,6.79-.49,2.23,2.54,4.04,3.86,1.8,1.76-2.99,4.36-6.23,6.9-8.59,2.83-2.63,6.34-3.52,9.37-5.67,2.1-1.49,1.94-5.4-1.22-5.42h0Z"/>
          </g>
          <g>
            <path class="cls-37" d="M414.24,534.02c-7-4.16-14.91-1.38-19.91,4.64-7.12,8.58-.19,9.68,1.08,13.45,1.09,3.26,5.98-3.87,9.22-1.94,3.21,1.91,1.94,10.7,5.29,10.14,3.97-.66,7.65,2.6,9.74-6.58,1.74-7.63,1.57-15.54-5.43-19.71h.01Z"/>
            <path class="cls-20" d="M417.04,542.66s2.34,12.47-.79,13.29-7.72-8.7-10.9-8.27c-3.17.43-3.69,1.91-5.57,1.15-1.87-.76-3.23-2.82-5.08-4.45-1.84-1.63,8.24-8.68,10.85-8.56s10.7-2.97,11.48,6.83h.01Z"/>
            <path class="cls-37" d="M413.87,535.23c-13.61-8.09-18.12-25.6-10.09-39.11,8.03-13.51,25.58-17.9,39.18-9.81,13.61,8.09,18.12,25.6,10.09,39.11-8.03,13.51-25.57,17.9-39.18,9.81Z"/>
            <path class="cls-37" d="M442.59,487.52c7,4.16,14.91,1.38,19.91-4.64,7.12-8.58.19-9.68-1.08-13.45-1.09-3.26-8.05,3.41-8.2-.36-.32-8.06-2.96-8.39-6.31-7.84-3.97.66-7.65-2.59-9.74,6.58-1.74,7.63-1.57,15.55,5.43,19.71h0Z"/>
            <path class="cls-20" d="M417.69,529.06c-3.61-7.58,4.03-11.22,12.6-15.3,8.58-4.08,14.85-7.06,18.46.53,3.61,7.58-.42,17.04-9,21.12s-18.46,1.24-22.06-6.35h0Z"/>
            <path class="cls-34" d="M455.71,507.47s-7.05-12.52-17.98-13.78-14.31,15.31-18.57,11.58c-4.27-3.73-12.21,13.92-12.02,20.21.19,6.3-12.45-16.17.87-31.85,15.87-18.67,46.22-4.92,47.7,13.83h0Z"/>
            <path class="cls-26" d="M430.01,535.19s9.02,3.22,13.6-4.78c4.58-8-19.65,4.27-13.6,4.78Z"/>
            <path class="cls-34" d="M456.05,486s-5.25,3.46-13.09.32c-2.82-1.13-5.15-13.43-3.97-16.33,1.19-2.89,4.51-.38,7.15,1.19s.88,5.17,2.1,6.25,4.81-4.65,4.76-3.06c-.05,1.58-4.01,7.34-1.79,7.82,2.22.48,9.84,2.27,4.84,3.82h0Z"/>
            <path class="cls-34" d="M416.96,537.07s4.02,7.2,1.12,10.13c-1.67,1.7-6.19-5.47-7.3-5.59-1.1-.12-2.6,4.24-5.19,2.12-2.6-2.11-4.56-5.42-5.4-4.31s-3.48,1.65-2.35-.25,13.11-11.22,19.12-2.1Z"/>
          </g>
          <g>
            <polygon class="cls-23" points="1020.16 843.11 987.53 874.09 985.66 871.98 1018.31 841.04 1020.16 843.11"/>
            <polygon class="cls-43" points="1012.77 848.01 986.82 873.42 987.53 874.09 1013.96 848.99 1012.77 848.01"/>
            <polygon class="cls-6" points="1008.3 850.52 1010.91 851.65 1013.96 848.99 1012.02 846.99 1008.3 850.52"/>
            <ellipse class="cls-42" cx="1029.15" cy="833.55" rx="21.75" ry="22.78" transform="translate(-282.92 1013.62) rotate(-46.82)"/>
            <path class="cls-51" d="M1017.64,845.57c-4.32-4.05-6.99-10.41-4.75-17.86,2.66-8.86,8.75-12.44,13.39-13.89,5.01-1.56,9.33-1.04,9.51-1.01.28.04.48.29.44.57s-.29.48-.57.44c-.04,0-4.31-.52-9.11.99-6.39,2-10.66,6.44-12.68,13.19-2.68,8.94,2.14,16.21,8.1,19.45,6.05,3.28,12.59,2.3,16.66-2.5,6.12-7.21,4.73-12.9,3.36-15.64-1.94-3.89-6.07-6.55-9.82-6.33-4.26.25-8.32,4.05-9.05,8.48-.59,3.61,1.25,6.56,5.04,8.09,1.92.77,3.55.39,4.61-1.07,1.17-1.62,1.32-4.16.32-5.33-.75-.89-1.93-.57-2.78-.14-.25.13-.56.02-.68-.23-.13-.25-.02-.56.23-.68,2.25-1.12,3.48-.23,4.02.4,1.29,1.52,1.16,4.6-.27,6.59-1.34,1.85-3.46,2.37-5.82,1.42-4.28-1.72-6.35-5.08-5.67-9.2.8-4.87,5.28-9.06,9.99-9.34,4.14-.24,8.68,2.66,10.8,6.9,1.48,2.97,3,9.1-3.5,16.76-4.4,5.19-11.44,6.26-17.93,2.74-1.36-.74-2.66-1.67-3.84-2.78v-.02Z"/>
            <path class="cls-7" d="M1016.26,815.77s-13.13,8.61-7.71,23.69c5.41,15.08,23.36,18.38,27.22,13.36,3.85-5.02-6.93-12.71-9.93-17.49-3.21-5.12-.35-26.4-9.57-19.56h-.01Z"/>
            <path class="cls-11" d="M1048.12,842.73s5.49-14.07-3.03-21.53c-8.52-7.47-12.86,1.52-11.23,11.97,1.63,10.44,10.48,18.58,14.26,9.57h0Z"/>
            <path class="cls-7" d="M1015.21,818.89s7.14-10.63,15.46-3.29c8.31,7.34,8.35,42.05-2.32,39.55-10.67-2.51-28.23-16.05-13.13-36.25h-.01Z"/>
            <path class="cls-7" d="M1025.26,812.21s-16.13,5.67-17.24,19.17,13.52,23.21,20.9,23.37c7.39.16-2.11.75-11.18-8.1-9.07-8.85-12.7-21.77,7.52-34.44Z"/>
            <path class="cls-26" d="M1049.12,836.1s1.79-8.55-6.91-17.56c-6.47-6.7-8.17-3.47-2.89,1.44,11.61,10.79,7.85,24.05,9.8,16.12Z"/>
            <path class="cls-26" d="M1048.68,841.01s-2.4,8.05-4.43,6.7c-2.02-1.35,5.56-9.83,4.43-6.7Z"/>
          </g>
          <g>
            <path class="cls-36" d="M214.12,184.61c-3.8-1.8-7.69-3.83-10.16-7.23-2.48-3.39-3.08-8.52-.26-11.64,3.8-4.2,10.6-2.43,16.19-3.35,6.46-1.06,11.52-5.95,16.14-10.59,4.27-4.3,8.54-8.6,12.54-13.14,4.52-5.14,10.38-11.18,16.98-9.37,6.63,1.82,8.6,10.16,8.95,17.02.49,9.48.15,19.01-.99,28.44-.7,5.81-.98,21.63-6.42,25.07-5.23,3.32-20.23-3.08-25.71-4.73-9.33-2.81-18.46-6.32-27.27-10.48h0Z"/>
            <path class="cls-36" d="M344.67,314.04c2.04,4.64,4.66,9.25,8.79,12.2s10.09,3.83,14.25.92c6.34-4.43,5.2-13.96,7.7-21.28,2.22-6.52,7.98-11.72,14.7-13.27,2.72-.63,5.57-.69,8.22-1.58,6.82-2.28,10.95-10,10.23-17.16-.71-7.16-5.55-13.47-11.69-17.23-6.13-3.76-13.42-5.23-20.6-5.61-11.16-.59-32.57-.58-36.39,12.63-4.65,16.06-1.84,35.32,4.79,50.38h0Z"/>
            <path class="cls-8" d="M255.38,199.59c4.72,1.21,9.27,1.78,11.71.23,5.44-3.44,5.71-19.26,6.42-25.07,1.14-9.43,1.48-18.95.99-28.44-.35-6.86-2.33-15.2-8.95-17.02-5.58-1.53-10.62,2.55-14.78,6.95,10.46,18.27,10.94,43.48,4.62,63.34h0Z"/>
            <path class="cls-8" d="M339.88,263.66c-.77,2.67-1.32,5.43-1.7,8.23,19.55-10.28,42.17,2.13,54.09,20.32,2.04-.32,4.1-.52,6.06-1.18,6.82-2.28,10.95-10,10.23-17.16-.71-7.16-5.55-13.47-11.69-17.23-6.13-3.76-13.42-5.23-20.6-5.61-11.16-.59-32.57-.58-36.39,12.63Z"/>
            <path class="cls-50" d="M303.01,271.86c8.69,4.58,18.39,7.75,28.21,7.25,9.81-.5,19.73-5.09,25.05-13.35,4.35-6.75,5.28-15.31,3.77-23.2-1.51-7.88-5.28-15.17-9.75-21.84-11.06-16.53-26.73-29.95-44.76-38.34-9.8-4.56-20.89-7.69-31.4-5.14-11.4,2.77-20.78,12.59-23.01,24.11-2.75,14.17,5.75,27.96,15.13,37.82,11.59,12.18,21.57,24.68,36.76,32.69Z"/>
            <path class="cls-46" d="M316.85,277.42c4.48,1.22,9.08,1.87,13.71,1.71,6.33-11.24,17.35-20.07,29.64-23.79.58-3.37.62-6.85.21-10.25-18.37,5.06-35.45,15.77-43.56,32.33h0Z"/>
            <path class="cls-50" d="M301.29,270.91c.57.32,1.14.65,1.72.96,4.39,2.32,9.05,4.26,13.84,5.56,8.11-16.56,25.19-27.27,43.56-32.33-.1-.84-.21-1.69-.37-2.52-.5-2.62-1.27-5.17-2.22-7.66-23.43,2.01-47.55,14.81-56.53,36h0Z"/>
            <path class="cls-46" d="M288.6,261.91c3.89,3.32,8.05,6.37,12.69,9,8.98-21.19,33.1-34,56.53-36-1.9-4.99-4.55-9.73-7.53-14.18-.37-.56-.76-1.1-1.15-1.65-25.25,4.18-49.37,20.56-60.55,42.83h.01Z"/>
            <path class="cls-50" d="M278.33,252.07c3.3,3.43,6.66,6.76,10.27,9.84,11.18-22.28,35.3-38.65,60.55-42.83-1.05-1.5-2.14-2.97-3.26-4.41-28.13.75-57.99,11.36-67.55,37.41h0Z"/>
            <path class="cls-46" d="M278.33,252.07c9.56-26.05,39.43-36.66,67.55-37.41-4.17-5.38-8.85-10.36-13.94-14.88-25.41,6.67-49.44,19.67-63.48,41.77,3.32,3.55,6.57,7.1,9.87,10.53h0Z"/>
            <path class="cls-50" d="M260.64,232.57c1.77,2.35,3.67,4.56,5.61,6.61.75.79,1.47,1.58,2.21,2.37,14.04-22.1,38.08-35.1,63.48-41.77-4.85-4.3-10.07-8.18-15.59-11.57-24.04,6.87-46.48,21.49-55.72,44.36h.01Z"/>
            <path class="cls-46" d="M260.64,232.57c9.24-22.88,31.68-37.49,55.72-44.36-3.01-1.85-6.12-3.52-9.29-5.06-21.52,6.37-42.44,15-54.97,33.31,1.74,5.77,4.86,11.24,8.54,16.12h0Z"/>
            <path class="cls-50" d="M274.13,177.24c-11.41,2.77-20.78,12.59-23.01,24.11-1,5.14-.5,10.23.97,15.1,12.53-18.31,33.44-26.94,54.97-33.31-.51-.25-1.01-.53-1.53-.77-9.8-4.56-20.89-7.69-31.4-5.14h0Z"/>
            <path class="cls-50" d="M331.22,279.12c9.81-.5,19.73-5.09,25.05-13.35,2.04-3.16,3.3-6.72,3.93-10.42-12.29,3.73-23.3,12.55-29.64,23.79.22,0,.44,0,.65-.02h.01Z"/>
            <path class="cls-8" d="M277.9,179.69c24.11,11.23,45.06,29.17,59.86,51.28,5.97,8.92,11.01,18.67,13.03,29.21.69,3.58.98,7.27.86,10.94,1.76-1.57,3.33-3.35,4.62-5.35,4.35-6.75,5.28-15.31,3.77-23.2-1.51-7.88-5.28-15.17-9.75-21.84-11.06-16.53-26.73-29.95-44.76-38.34-9.8-4.56-20.89-7.69-31.4-5.14-.37.09-.74.21-1.1.31,1.64.68,3.27,1.39,4.87,2.13h0Z"/>
            <path class="cls-3" d="M257.74,218.88c6.1,11.63,13.9,23.03,23.91,31.67,9.06,7.81,20.46,16.62,32.12,19.82,2.21.61,4.18-2.4,2.32-4.01-4.18-3.62-8.73-6.67-13.17-9.97-5.4-4.01-9.39-8.38-13.7-13.48-8.03-9.49-15.25-19.11-20.81-30.28-3.53-7.09-14.38-.82-10.67,6.26h0Z"/>
          </g>
          <g>
            <g>
              <path class="cls-41" d="M1661.2,561.32l93-31.98c1.2-.92,1.38-2.7.4-3.85-.98-1.15-2.63-1.55-4.13-1.39s-2.99.66-4.37,1.29l-86.26,29.66c.07.24.16.48.23.72-1.18.58-1.81,2.1-1.39,3.35s1.22,2.45,2.51,2.2h.01Z"/>
              <path class="cls-8" d="M1746.1,525.39l-86.26,29.66c.07.24.16.48.23.72-.87.43-1.44,1.36-1.51,2.33l87.22-29.99c1.59-.7,3.29-1.28,5-1.51,1.61-.22,3.32.07,4.4,1.04.11-.74-.07-1.53-.59-2.15-.98-1.15-2.63-1.55-4.13-1.39s-2.99.66-4.37,1.29h.01Z"/>
            </g>
            <path class="cls-36" d="M1600.25,552.45c-1.85,5.81-1.89,12.64-.56,19.04,7.62-17.89,25.07-32.32,44.16-36.08-6.21-2.95-13.24-4.12-20.01-2.97-10.69,1.83-20.3,9.68-23.59,20.01Z"/>
            <path class="cls-36" d="M1609.11,590.92c3.44,4.25,7.67,7.93,12.38,9.7,7.57,2.84,16.16,2.03,23.7-.87,6.73-2.58,13-6.98,16.53-13.26.94-1.68,1.67-3.45,2.21-5.29-15.44,10.96-36.17,14.33-54.82,9.73h0Z"/>
            <path class="cls-50" d="M1664.22,561.74c-15.92,14.41-39.52,20.46-60.44,21.12,1.45,2.7,3.24,5.49,5.33,8.06,18.64,4.6,39.37,1.23,54.82-9.73.92-3.08,1.32-6.34,1.36-9.56.04-3.32-.32-6.65-1.06-9.89h0Z"/>
            <path class="cls-36" d="M1601.69,578.34c.45,1.16.94,2.28,1.48,3.35.19.39.4.78.61,1.17,20.93-.66,44.52-6.72,60.44-21.12-.91-4-2.38-7.86-4.41-11.4-21.56,1.7-42.36,13.21-58.12,28h0Z"/>
            <path class="cls-50" d="M1599.69,571.49c.49,2.37,1.17,4.68,2.01,6.85,15.77-14.79,36.56-26.3,58.12-28-1.7-2.97-3.77-5.72-6.22-8.13-2.83-2.79-6.15-5.09-9.75-6.8-19.09,3.76-36.54,18.19-44.16,36.08Z"/>
            <path class="cls-50" d="M1631.27,539.51c-4.7,2.15-9.16,4.93-13.24,8.19,2.15,2.9,4.11,5.93,5.88,9.07.74,1.31,1.44,2.64,2.1,3.99,4.41-2.36,8.97-4.41,13.64-6.06-1.83-3.57-3.77-7.09-5.72-10.6-.86-1.55-1.72-3.1-2.66-4.6h0Z"/>
            <path class="cls-50" d="M1632.52,578.48c.82,3.28,1.46,6.61,1.89,9.97.16,1.22.16,2.55.11,3.92,5.09-.64,10.1-1.84,14.88-3.6.06-5.3-.79-10.64-2.24-15.78-4.68,2.24-9.61,4.05-14.65,5.5h.01Z"/>
            <path class="cls-8" d="M1610.23,538.51c.21-.04.42-.1.64-.13,12.85-2.2,26.51,2.58,35.79,11.74s14.2,22.35,14.05,35.39c-.01.92-.05,1.83-.12,2.75.39-.58.77-1.17,1.11-1.78,2.52-4.49,3.51-9.71,3.57-14.85.13-10.84-3.97-21.81-11.68-29.42-7.72-7.62-19.07-11.59-29.76-9.76-4.94.85-9.65,2.99-13.61,6.06h.01Z"/>
            <path class="cls-36" d="M1634.52,592.36c-.11,3.31-.49,6.85.38,9.61,1.53,4.83,7.06,5.59,10.38,2.11,1.84-1.93,2.71-4.59,3.26-7.2.56-2.68.83-5.39.86-8.12-4.78,1.75-9.79,2.95-14.88,3.6h0Z"/>
            <path class="cls-36" d="M1626.01,560.77c2.8,5.65,4.98,11.6,6.51,17.71,5.04-1.44,9.97-3.26,14.65-5.5-.35-1.23-.73-2.45-1.14-3.66-1.72-5.04-3.95-9.88-6.38-14.62-4.67,1.65-9.23,3.69-13.64,6.06h0Z"/>
            <path class="cls-36" d="M1612.38,530.02c-1.79,1.03-3.12,2.98-3.07,5.05.05,2.48,1.9,4.49,3.56,6.33,1.82,2.02,3.54,4.13,5.16,6.31,4.08-3.27,8.53-6.04,13.24-8.19-1.04-1.66-2.16-3.26-3.47-4.72-2.49-2.77-5.73-5.03-9.4-5.65-2.04-.34-4.22-.15-6.02.88h0Z"/>
            <path class="cls-8" d="M1621.39,533.59c2.78,3.1,4.82,6.77,6.84,10.41,5.06,9.12,10.15,18.29,13.51,28.16s4.95,20.57,2.81,30.78c-.15.73-.33,1.47-.54,2.19.44-.29.87-.64,1.26-1.05,1.84-1.93,2.71-4.59,3.26-7.2,1.91-9.14.49-18.72-2.52-27.56s-7.57-17.05-12.1-25.21c-1.81-3.26-3.64-6.55-6.13-9.32s-5.73-5.03-9.4-5.65c-.87-.15-1.77-.19-2.66-.12,2.12,1.17,4.03,2.76,5.65,4.57h.02Z"/>
            <path class="cls-3" d="M1605.1,568.45c-2.86,5.29,2.25,13.83,5.69,17.85,3.65,4.27,8.87,6.82,14.48,7.09,1.29.06,1.29-1.66.44-2.2-2.04-1.28-3.65-2.14-5.38-3.83-1.81-1.78-3.83-3.32-5.44-5.31-1.74-2.15-3.07-4.62-3.92-7.26-.73-2.28-.72-4.68-2.21-6.61-.99-1.29-2.88-1.18-3.67.27h.01Z"/>
          </g>
          <g>
            <path class="cls-36" d="M757.78,206.87c-10.51,9.62-15.94,25.78-9.89,38.68,5.03,10.73,16.85,17.07,28.63,18.36,11.78,1.3,23.6-1.7,34.85-5.41,10.54-3.47,21.16-7.76,29.17-15.45,8-7.69,12.91-19.48,9.71-30.11-2.85-9.47-11.58-16.28-21-19.27-21.88-6.94-54.3-2.51-71.47,13.19h0Z"/>
            <path class="cls-8" d="M850.25,212.95c-1.64-5.45-5.24-10.01-9.78-13.48,2.04,11.5-3.44,23.71-11.97,31.91-9.29,8.92-21.63,13.91-33.86,17.94-12.45,4.1-25.5,7.44-38.53,6.45,5.72,4.57,13.08,7.34,20.42,8.15,11.78,1.3,23.6-1.7,34.85-5.41,10.54-3.47,21.16-7.76,29.17-15.45,8-7.69,12.91-19.48,9.71-30.11h0Z"/>
            <path class="cls-3" d="M786.53,204.28c-6.19-.46-12.72,3.51-17.44,7.23-2.48,1.95-4.7,4.21-6.6,6.73-2.42,3.21-2.94,5.51-4.02,9.25-.89,3.07,3.17,5.88,5.21,2.87,2.73-4.01,6.66-8.28,10.43-11.35,4.19-3.41,9.18-4.32,13.61-7.04,3.07-1.88,3.21-7.35-1.2-7.68h.01Z"/>
          </g>
        </g>
      </g>
    </g>
  </g>
</svg>