<?xml version="1.0" encoding="UTF-8"?>
<svg xmlns="http://www.w3.org/2000/svg" viewBox="0 0 273.69 245.51">
  <defs>
    <style>
      .cls-1 {
        fill: #fffaef;
      }

      .cls-2 {
        fill: #fdfadb;
        opacity: .1;
      }

      .cls-3 {
        fill: #5a2845;
      }

      .cls-4 {
        fill: #b32d2f;
        opacity: .2;
      }

      .cls-5 {
        fill: #dcd8c6;
      }

      .cls-6 {
        fill: #fff;
        mix-blend-mode: lighten;
        opacity: .8;
      }

      .cls-7 {
        fill: #81467d;
      }

      .cls-8 {
        fill: #c0b1bc;
      }

      .cls-8, .cls-9 {
        opacity: .5;
      }

      .cls-10 {
        isolation: isolate;
      }

      .cls-11 {
        fill: #f58a28;
      }

      .cls-12 {
        fill: #683761;
      }

      .cls-13 {
        fill: #ee4623;
      }

      .cls-14 {
        fill: #c2c3ca;
        mix-blend-mode: multiply;
        opacity: .6;
      }

      .cls-15 {
        fill: #f4efd7;
      }

      .cls-16 {
        fill: #ff5eb2;
      }

      .cls-9 {
        fill: #a28294;
      }

      .cls-17 {
        fill: #fdec41;
      }

      .cls-18 {
        fill: #f05a28;
      }
    </style>
  </defs>
  <g class="cls-10">
    <g id="Layer_2" data-name="Layer 2">
      <g id="Layer_1-2" data-name="Layer 1">
        <g>
          <g>
            <g>
              <polygon class="cls-5" points="147.14 103.66 107.93 231.67 100.01 228.96 139.31 100.99 147.14 103.66"/>
              <polygon class="cls-15" points="135.17 127.15 105.1 230.97 107.93 231.67 139.69 127.96 135.17 127.15"/>
              <polygon class="cls-8" points="127.26 140.21 135.67 139.33 139.69 127.96 131.74 125.63 127.26 140.21"/>
            </g>
            <path class="cls-7" d="M152.84,109.9s9.35,19.37,6.89,21.16c-6.13,4.48-14.11-2.71-16.3-.74-2.19,1.98-12.98,6.1-15.44,3.76-2.46-2.34-4.46-11.42-7.66-11.34-3.2.08-11.88-.98-10.21-4.7,1.67-3.73,13.4-18.15,22.12-17.08,8.71,1.07,20.61,8.94,20.61,8.94Z"/>
            <path class="cls-7" d="M207.48,71.09c-8.84,28.98-39.71,45.24-68.97,36.32-29.25-8.92-45.8-39.64-36.96-68.62C110.39,9.81,141.27-6.45,170.52,2.47c29.25,8.92,45.8,39.64,36.96,68.62Z"/>
            <path class="cls-12" d="M158.35.19s-54.11,9.14-46.47,61.74c3.67,25.29,19.9.73,24.78,3.83,4.88,3.1,1.88,25.07,11.36,25.26,9.48.18,17.26-21.85,22.07-15.06,4.81,6.79-8.64,19.66-2.75,21.18,5.89,1.52,15.79-8.79,19.36-4.44,3.57,4.35-17.05,22.92-48.18,14.72-31.12-8.2-44.34-39.01-38.21-63.73C106.44,18.97,122.97-2.21,158.35.19Z"/>
            <path class="cls-9" d="M158.8,10.16s25.5-1.68,32.91,10.04c10.26,16.21,14.24,43.89,4.44,44.92-31.4,3.3-48.19-57.53-37.36-54.96Z"/>
            <path class="cls-12" d="M157.73,121.14h0s-4.3-.81-6.45-4.83c-2.15-4.03-9.98,6.69-13.47,6.42-3.49-.27-2.63-8.94-4.28-10.05-1.65-1.1-19.71,1.88-15.84-4.16,3.86-6.04,13.29-8.29,13.29-8.29,0,0,20.56,5.52,21.07,6.43"/>
            <path class="cls-1" d="M187.96,17.71s14.36,15.74,16.62,29.15c2.26,13.41-.35,20.97-1.23,19.77-.87-1.19.01-20.33-7.14-31.37-7.15-11.04-12.34-18.98-8.25-17.56Z"/>
            <path class="cls-1" d="M204.34,71.5s-3.01,9.55-4.84,7.45c-1.83-2.11,4.49-13.08,4.84-7.45Z"/>
            <path class="cls-3" d="M119.41,96.7s-5.02-13.48-2.45-11.51l2.57,1.98s7.29,12.55,12.94,14.01c5.64,1.46,6.62-5.66,7.88-5.01,1.26.65,4.15,7.23,4.59,7.09.44-.13,1.8-1.14,1.8-1.14,0,0,10.93-5.44,11.98-3.26,1.06,2.18-11.31,7.29-11.7,7.62-.39.34,1.04,1.3,1.04,1.3,0,0,10.14-2.8,10.32-.43.18,2.37-9.41,2.17-16.14,1.24-6.73-.93-20.88-6.15-22.84-11.9Z"/>
            <path class="cls-2" d="M152.92,10.22s-34.83,3.81-35.39,39.39c-.56,35.58,48.75,56.52,67.29,36.77,18.54-19.75,20.33-71.53-31.89-76.17Z"/>
          </g>
          <g>
            <g>
              <polygon class="cls-5" points="57.88 126.64 103.64 228.9 97.15 231.56 51.47 129.27 57.88 126.64"/>
              <polygon class="cls-15" points="63.27 148.03 101.47 230.03 103.64 228.9 66.56 146.05 63.27 148.03"/>
              <polygon class="cls-8" points="65.47 160.62 70.29 155.43 66.56 146.05 60.27 148.96 65.47 160.62"/>
            </g>
            <path class="cls-13" d="M91.53,90.74c9.6,24.12-1.66,51.25-25.16,60.6-23.49,9.35-50.32-2.63-59.91-26.75-9.6-24.12,1.66-51.25,25.16-60.6,23.49-9.35,50.31,2.63,59.91,26.75Z"/>
            <path class="cls-4" d="M93.47,101.63s-34.12,23.45-46.31,27.22c-12.18,3.77-16.81,12.79-8.44,16.63,8.37,3.84,48.77-11.54,48.77-11.54,0,0-7.12,16.91-32.88,20.31-25.76,3.4-39.99-14.8-43.06-20.12,0,0,75.36-33.2,81.92-32.5Z"/>
            <path class="cls-18" d="M97.08,89.22c2.08,5.23.46,10.79-3.61,12.41L12.54,133.84c-4.08,1.62-9.07-1.3-11.15-6.53l-.47-1.18c-2.08-5.23-.46-10.79,3.61-12.41l80.93-32.2c4.08-1.62,9.07,1.3,11.16,6.53l.47,1.18Z"/>
            <path class="cls-4" d="M29.55,64.88s-14,18.07-6.19,23.93c7.81,5.86,52.56-5.49,53.24-3.78.68,1.7-72.99,29.14-72.99,29.14,0,0-6.87-33.66,25.94-49.29Z"/>
            <path class="cls-11" d="M48.08,66.48s15.11,2.42,24.55,10.68c9.45,8.26-43.63,3.01-39.84-2.09,3.79-5.1,6.56-8.71,15.28-8.59Z"/>
            <path class="cls-1" d="M49.39,61.64s22.3,3.48,24.83,9.37c2.53,5.89-36.11-9.13-24.83-9.37Z"/>
            <path class="cls-11" d="M64.98,126.33s27.78-21.32,26.74-15.77c-1.04,5.55-6.49,19.35-11.22,21.23-4.73,1.88-19.08-2.78-15.52-5.46Z"/>
            <path class="cls-4" d="M9,129.63s-9.71-9.09-2.43-14.18c7.28-5.09,39.44-16.21,43.1-14.39,3.65,1.81,7.11,10.29-2.5,15.11-9.61,4.82-39.01,16.84-38.17,13.46Z"/>
            <path class="cls-1" d="M42.36,105.28s30.65-12.92,34.74-13.82c4.09-.91,3.4,5.11-6.99,9.96-10.39,4.85-42.62,10.04-27.75,3.87Z"/>
            <path class="cls-1" d="M81.1,95.77s2.71-10.09,4.98-9.07c2.27,1.02,3.36,5.07,1.65,7.9-1.71,2.83-7.24,3.24-6.63,1.17Z"/>
          </g>
          <g>
            <path class="cls-16" d="M119.38,207.32c17.38-26.51,34.88-52.93,52.28-79.43,7.38-11.24,14.36-24.63,26.23-31.77,9.27-5.58,20.71-6.65,31.15-4.36,22.88,5.01,47.68,26.06,44.36,51.35-1,7.57-3.85,14.64-7.37,21.38-3.48,6.65-7.11,13.89-12.11,19.56-6.07,6.89-20.02,11.14-25.16,1.22-.27-.18-.5-.45-.63-.82-4.78-13.36,9.43-22.6,13.48-33.76,5.17-14.2-4.53-29.76-19.5-31.27-17.6-1.77-26.2,15.23-34.43,27.8-9.38,14.34-18.55,28.79-27.77,43.23-10.29,16.1-20.58,32.2-30.92,48.28-.21.32-.45.56-.72.72-4.69,8.12-17.1,8.39-21.1-.94-4.58-10.7,6.9-23.08,12.21-31.18Z"/>
            <path class="cls-16" d="M107.17,238.5c4,9.32,16.41,9.06,21.1.94.27-.16.51-.39.72-.72.24-.38.49-.76.73-1.14-5.03-7.33-11.07-13.82-18.18-18.96-4.04,6.37-7.12,13.43-4.36,19.88Z"/>
            <path class="cls-17" d="M119.38,207.32c-2.11,3.22-5.19,7.11-7.85,11.3,7.11,5.14,13.15,11.63,18.18,18.96,3.48-5.42,6.95-10.84,10.43-16.26-5.51-6.54-11.68-12.51-18.35-17.67-.8,1.22-1.61,2.44-2.41,3.67Z"/>
            <path class="cls-16" d="M121.79,203.65c6.67,5.16,12.84,11.13,18.35,17.67,3.82-5.96,7.63-11.92,11.44-17.88-5.97-5.68-12.64-10.82-19.4-15.58-3.46,5.26-6.93,10.52-10.39,15.78Z"/>
            <path class="cls-17" d="M132.18,187.87c6.76,4.76,13.43,9.9,19.4,15.58,2.77-4.33,5.55-8.67,8.32-13,.54-.84,1.07-1.68,1.61-2.52-5.75-6.13-11.61-12.02-18.05-17.18-3.76,5.71-7.52,11.42-11.28,17.13Z"/>
            <path class="cls-16" d="M143.45,170.74c6.45,5.16,12.3,11.05,18.05,17.18,3.18-4.98,6.35-9.95,9.53-14.93-6.26-5.68-12.01-11.82-16.69-18.81-3.63,5.52-7.26,11.04-10.89,16.55Z"/>
            <path class="cls-16" d="M171.65,127.89c-1.93,2.93-3.86,5.86-5.79,8.8,5.96,6.01,10.64,12.84,16.27,19.06,1.84-2.85,3.68-5.69,5.53-8.53,1.45-2.21,2.91-4.56,4.42-6.91-5.23-6.69-9.56-14.24-15.67-19.9-1.61,2.54-3.18,5.06-4.77,7.48Z"/>
            <path class="cls-17" d="M176.42,120.41c6.11,5.65,10.44,13.21,15.67,19.9,3.46-5.38,7.23-10.81,11.85-14.81-5.24-6.96-11.24-13.37-16.65-20.28-4.08,4.64-7.55,9.95-10.87,15.2Z"/>
            <path class="cls-17" d="M229.03,91.76c-7.02-1.54-14.49-1.55-21.45.3,1.01,9.62,5.44,18.37,8.08,27.58,2.01-.36,4.15-.45,6.44-.22,2.07.21,4.04.7,5.89,1.4,1.42-9.56,3.5-18.73,5.7-27.82-1.56-.48-3.11-.9-4.66-1.24Z"/>
            <path class="cls-16" d="M233.69,93c-2.2,9.09-4.29,18.26-5.7,27.82,4.52,1.73,8.27,4.83,10.9,8.7,6.84-7.12,13.45-14.18,20.48-21.35-7.25-7-16.45-12.31-25.67-15.16Z"/>
            <path class="cls-17" d="M272.46,129.37c-2.13-7.99-6.89-15.22-13.1-21.21-7.02,7.17-13.64,14.23-20.48,21.35,1.53,2.25,2.68,4.76,3.37,7.41,10.38-1.28,20.3-4.4,30.21-7.55Z"/>
            <path class="cls-16" d="M273.39,143.11c.63-4.76.24-9.36-.93-13.73-9.91,3.15-19.83,6.27-30.21,7.55,1.05,4.05,1.03,8.43-.32,12.72,9.81.98,19.36,1.98,28.88,3.94,1.19-3.39,2.09-6.88,2.57-10.48Z"/>
            <path class="cls-17" d="M266.01,164.48c1.84-3.53,3.49-7.16,4.8-10.89-9.52-1.96-19.07-2.96-28.88-3.94-.11.34-.21.69-.33,1.03-1.71,4.7-5.22,9.06-8.35,13.53,9.15,3.65,17.96,7.39,26.86,11.1,2.13-3.56,4.04-7.28,5.9-10.83Z"/>
            <path class="cls-16" d="M233.25,164.22c-4.3,6.14-7.9,12.49-5.13,20.22.13.38.36.64.63.82,5.14,9.92,19.08,5.67,25.16-1.22,2.33-2.64,4.35-5.62,6.21-8.73-8.91-3.71-17.72-7.45-26.86-11.1Z"/>
            <path class="cls-16" d="M207.57,92.06c-3.39.9-6.66,2.23-9.69,4.06-4.03,2.42-7.49,5.56-10.59,9.09,5.42,6.92,11.41,13.33,16.65,20.28,3.37-2.91,7.21-5.06,11.71-5.86-2.64-9.21-7.08-17.96-8.08-27.58Z"/>
            <path class="cls-17" d="M154.35,154.19c4.68,6.99,10.43,13.13,16.69,18.81,3.68-5.76,7.38-11.51,11.1-17.25-5.63-6.22-10.31-13.05-16.27-19.06-3.84,5.83-7.68,11.67-11.52,17.5Z"/>
            <path class="cls-14" d="M193.58,127.44c-28.68,38.68-49.36,82.14-82.15,116.24,5.4,3.53,13.31,1.88,16.84-4.24.27-.16.51-.39.72-.72,10.34-16.08,20.63-32.17,30.92-48.28,9.22-14.43,18.39-28.89,27.77-43.23,5.97-9.11,12.13-20.55,21.78-25.48-5.82-1.22-12.33.94-15.86,5.7Z"/>
            <path class="cls-14" d="M266.01,164.48c3.52-6.73,6.37-13.81,7.37-21.38,1.36-10.37-2.01-20.03-8.04-28.16,5.9,19.47,2.9,42.53-12.13,58.43-5.25,6.01-10.23,11.58-14.7,17.74,5.6.08,11.83-3.04,15.38-7.07,5-5.66,8.63-12.91,12.11-19.56Z"/>
            <path class="cls-6" d="M247.72,105.36c-7.12-8.8-21.59-10.18-32.03-8.92-11.2,1.35-21.16,7.61-28.27,16.24-.94,1.14.65,2.84,1.62,1.69,6.87-8.17,16.48-13.24,27.11-14.47,11.46-1.33,19.72,4.37,29.76,8.5,1.84.76,2.82-1.8,1.82-3.04Z"/>
            <path class="cls-6" d="M168.17,145.4c.6-1.4-1.57-2.59-2.54-1.52-3.52,3.89-6.08,8.82-8.91,13.23-3.14,4.9-6.21,9.84-9.28,14.79-6.13,9.89-12.4,19.7-18.6,29.56-.96,1.53,1.42,2.94,2.4,1.43,6.37-9.75,12.67-19.55,19.1-29.26,3.04-4.59,6.08-9.17,9.05-13.8,3-4.68,6.6-9.31,8.78-14.43Z"/>
          </g>
        </g>
      </g>
    </g>
  </g>
</svg>